<svg id="svg1575" width="120" height="160" version="1.1" viewBox="0 0 63 85" xmlns="http://www.w3.org/2000/svg">
	<g id="layer1">
		<path id="path233" d="m33 .4c-17 0-31 36-31 53 0 17 14 31 31 31 17 0 31-14 31-31 0-17-14-53-31-53" style="fill:#68421c"/>
		<path id="path235" d="m32 78c-2 0-2 4 0 4 3 0 3-4 0-4" style="fill:#ff9c14"/>
		<path id="path237" d="m49 74c4-1 8-3 11-6 .7-1 1-3 2-4-4 3-8 6-13 8-1 .4-.7 2 .5 2" style="fill:#ff9c14"/>
		<path id="path239" d="m39 66c-3 .02-3 5 0 5 10-.05 19-5 25-12 .4-2 .6-4 .6-6 0-1-.1-3-.3-5-4 10-13 17-25 17" style="fill:#fff0d9"/>
		<path id="path241" d="m21 37c-3-2-5 3-3 4 14 8 31 5 42-6-.5-2-1-4-2-5-9 11-24 14-37 7" style="fill:#fff0d9"/>
		<path id="path243" d="m51 47c-2 0-2 4 0 4 3 0 3-4 0-4" style="fill:#ff9c14"/>
		<path id="path245" d="m44 51c-2 0-2 4 0 4 3 0 3-4 0-4" style="fill:#ff9c14"/>
		<path id="path247" d="m35 52c-2 0-2 4 0 4 3 0 3-4 0-4" style="fill:#ff9c14"/>
		<path id="path249" d="m44 30c-2 0-2 4 0 4 3 0 3-4 0-4" style="fill:#ff9c14"/>
		<path id="path251" d="m45 6c-1 1-3 2-5 2-3 .5-1 4 1 4 2-.5 5-2 7-3-.9-1-2-2-3-3" style="fill:#fff0d9"/>
		<path id="path253" d="m44 16c-3 0-3 4 0 4 2 0 2-4 0-4" style="fill:#ff9c14"/>
		<path id="path255" d="m25 4c-.4-.07-.7-.2-1-.2-.7.5-1 1-2 2 4 1 8 2 12 1 3-.3 6-1 8-3-.6-.5-1-.9-2-1-3 3-13 2-15 2" style="fill:#ff9c14"/>
		<path id="path257" d="m32 10c-3 0-3 4 0 4 2 0 2-4 0-4" style="fill:#ff9c14"/>
		<path id="path259" d="m36 16c-7 .6-14-1-19-5-.6.8-1 2-2 2 6 5 13 7 21 6 2-.2 2-3 0-3" style="fill:#ff9c14"/>
		<path id="path261" d="m47 22c-11 4-24 2-33-5-.5.9-1 2-1 3 10 7 23 10 36 6 2-.6 1-3-.8-3" style="fill:#fff0d9"/>
		<path id="path263" d="m36 30c-9 .3-18-3-26-8-.6 1-1 2-2 4 8 6 17 9 27 8 3-.08 3-4 0-4" style="fill:#fff0d9"/>
		<path id="path265" d="m27 49c-8-2-17-5-22-11-.2.8-.4 2-.6 2 6 6 14 9 22 10 1 .3 2-2 .4-2" style="fill:#ff9c14"/>
		<path id="path267" d="m59 50c-5 12-18 13-30 12-10-.8-19-4-27-9-.004.2-.008.4-.008.6 0 .6.02 1 .05 2 10 6 21 9 32 9 11 .3 22-3 27-14 .5-1-1-2-2-.5" style="fill:#ff9c14"/>
		<path id="path269" d="m28 79c-2-.3-4-.7-6-1 .9-1 .9-3-.8-3-8-1-13-6-18-11 2 6 5 11 10 14 4 2 9 3 14 4 1 .3 2-2 .6-2" style="fill:#fff0d9"/>
	</g>
</svg>
