<svg id="svg1575" width="120" height="160" version="1.1" viewBox="0 0 63 85" xmlns="http://www.w3.org/2000/svg">
	<g id="layer1">
		<path id="path25" d="m43 54-.5-.6c-1-1-2-2-4-2h-11c-2 0-3 .8-4 2l-.5.6c-.08.1-.2.2-.3.3-.6.8-4 5-4 12-.02.6.05 1 .2 2 .7 2 3 4 5 4h18c2 0 4-2 5-4 .2-.6.2-1 .2-2-.3-7-3-12-4-12-.09-.1-.2-.2-.3-.3" style="fill:#eecfbf"/>
		<path id="path27" d="m24 53-.5.6c-.08.1-.2.2-.3.3-.6.8-4 5-4 12-.02.6.05 1 .2 2 .7 2 3 4 5 4h3c-2 0-4-2-5-4-.2-.6-.2-1-.2-2 .3-7 3-12 4-12 .09-.1.2-.2.3-.3l.5-.6c1-1 2-2 4-2h-3c-2 0-3 .8-4 2" style="fill:#cfb8a8"/>
		<path id="path29" d="m13 1c-4 3-2 11 11 27l5-3c-6-20-12-26-17-23" style="fill:#eecfbf"/>
		<path id="path31" d="m15 5c-3 2 2 13 10 23l3-2c-4-13-11-22-14-20" style="fill:#cfb8a8"/>
		<path id="path33" d="m54 1c-4-3-10 3-17 23l5 3c13-15 16-24 11-27" style="fill:#eecfbf"/>
		<path id="path35" d="m52 5c-3-2-10 7-14 20l3 2c9-10 13-21 10-23" style="fill:#cfb8a8"/>
		<path id="path37" d="m45 34c0-7-5-12-11-12-6 0-11 6-11 12-6 0-9 20 11 20 20 0 17-20 11-20" style="fill:#eee6e3"/>
		<path id="path39" d="m24 52c-.4-.3-.9-.6-1-.9.4.3.8.6 1 .9" style="fill:#e3e3e3"/>
		<path id="path41" d="m19 45c.6 2 2 4 4 6-2-2-3-4-4-6" style="fill:#e3e3e3"/>
		<path id="path43" d="m26 53c2 .8 5 1 8 1 .1 0 .3-7e-4.4-.003-.1.002-.3.003-.4.003-3 0-6-.5-8-1" style="fill:#bfc2cf"/>
		<path id="path45" d="m24 52c.7.4 1 .8 2 1-.9-.3-2-.7-2-1" style="fill:#abaeb8"/>
		<path id="path47" d="m26 34c0-6 4-11 10-12-.5-.08-1-.1-2-.1-6 0-11 6-11 12-3 0-5 6-4 11 .7 3 2 5 5 7 .7.4 1 .8 2 1 2 .8 5 1 8 1 .1 0 .3-7e-4.4-.003.4-.007.8-.02 1-.04-18-1-15-20-10-20" style="fill:#d4cfcc"/>
		<path id="path49" d="m28 36c-.7 0-1 .6-1 1s.6 1 1 1 1-.6 1-1-.6-1-1-1" style="fill:#5e5c5c"/>
		<path id="path51" d="m40 36c-.7 0-1 .6-1 1s.6 1 1 1c.7 0 1-.6 1-1s-.6-1-1-1" style="fill:#5e5c5c"/>
		<path id="path53" d="m38 43c-.4.4-2 2-3 1-.8-.3-1-2-1-2-.05-.3-.3-.5-.5-.5-.3 0-.5.2-.5.5-.2 1-.5 2-1 2-.9.3-2-.7-3-1-.2-.2-.6-.2-.8.02-.2.2-.2.6.02.8.08.08 2 2 4 1 .6-.2 1-.7 2-2 .4.8.9 1 2 2 .2.08.5.1.7.1 2 0 3-1 3-2 .2-.2.2-.6.02-.8-.2-.2-.5-.2-.8-.02" style="fill:#5e5c5c"/>
		<path id="path55" d="m34 39c-.9 0-2 .5-2 1 0 .7.7 3 2 3 .9 0 2-2 2-3 0-.7-.7-1-2-1" style="fill:#353330"/>
		<path id="path57" d="m53 59-3 3c-1 1-3 1-4 0l-3-3c-1-1-3-1-4 0l-3 3c-1 1-3 1-4 0l-3-3c-1-1-3-1-4 0l-3 3c-1 1-3 1-4 0l-3-3c-.6-.7-2-.1-2 .9 1 17 11 25 21 25s19-7 21-25c.08-1-1-2-2-.9" style="fill:#68421c"/>
		<path id="path59" d="m14 59c-.2-.2-.4-.3-.7-.3.2 0 .5.1.7.3l2 2-2-2z" style="fill:#e3e3e3"/>
		<path id="path61" d="m16 61-2-2c-.2-.2-.4-.3-.7-.3-.5 0-1 .5-1 1 1 17 11 25 21 25h.01.01c.5-7e-4 1-.03 2-.07-9-.8-18-8-19-24" style="fill:#513314"/>
	</g>
</svg>
