<?xml version="1.0" encoding="UTF-8" standalone="no"?>
<svg
  xmlns:dc="http://purl.org/dc/elements/1.1/"
  xmlns:cc="http://creativecommons.org/ns#"
  xmlns:rdf="http://www.w3.org/1999/02/22-rdf-syntax-ns#"
  xmlns:svg="http://www.w3.org/2000/svg"
  xmlns="http://www.w3.org/2000/svg"
  xmlns:xlink="http://www.w3.org/1999/xlink"
  version="1.1"
  id="Layer_1"
  x="0px"
  y="0px"
  width="1400px"
  height="980px"
  viewBox="0 0 1400 980"
  enable-background="new 0 0 1400 980"
  xml:space="preserve"
>
  <metadata id="metadata1071">
    <rdf:RDF
      ><cc:Work rdf:about=""
        ><dc:format>image/svg+xml</dc:format
        ><dc:type
          rdf:resource="http://purl.org/dc/dcmitype/StillImage" /><dc:title></dc:title></cc:Work
    ></rdf:RDF>
  </metadata>
  <defs id="defs1069">
    <defs id="defs3">
      <style>
        #olho-close {
          opacity: 0;
          animation: olhoClose 2s ease-in-out alternate infinite;
        }

        #nuvens-1,
        #nuvens-2 {
          animation: movimento-nuvem-dir 40s ease-in-out infinite alternate;
        }

        #nuvens-3,
        #nuvens-4 {
          animation: movimento-nuvem-esq 40s ease-in-out infinite alternate;
        }

        #borb-1,
        #borb-5 {
          animation: mov-bor-1 1s ease-in-out infinite alternate;
        }

        #borb-2,
        #borb-4,
        #borb-3 {
          animation: mov-bor-2 2s ease-in-out infinite alternate;
        }

        @keyframes movimento-nuvem-esq {
          to {
            transform: translate(-400px);
          }
        }

        @keyframes movimento-nuvem-dir {
          to {
            transform: translate(400px);
          }
        }

        @keyframes mov-bor-1 {
          to {
            transform: translate(2px,3px);
          }
        }

        @keyframes mov-bor-2 {
          to {
            transform: translate(-2px,-3px) rotate(1deg);
          }
        }

        @keyframes olhoClose {
          to {
            opacity: 1;
          }
          90% {
            opacity: 0;
          }
          from {
            opacity: 0;
          }
        }
      </style>
      <rect id="SVGID_1_" width="1400" height="980" x="0" y="0" />
    </defs>
    <clipPath id="SVGID_2_">
      <use
        xlink:href="#SVGID_1_"
        overflow="visible"
        id="use5"
        x="0"
        y="0"
        width="100%"
        height="100%"
      />
    </clipPath>
    <linearGradient
      id="SVGID_3_"
      gradientUnits="userSpaceOnUse"
      x1="700"
      y1="-2.9998"
      x2="700"
      y2="1009.007"
    >
      <stop offset="0" style="stop-color: #83dcd8" id="stop8" />
      <stop offset="0.1482" style="stop-color: #89deda" id="stop10" />
      <stop offset="0.3436" style="stop-color: #99e2df" id="stop12" />
      <stop offset="0.5655" style="stop-color: #b5eae8" id="stop14" />
      <stop offset="0.805" style="stop-color: #dbf5f4" id="stop16" />
      <stop offset="1" style="stop-color: #ffffff" id="stop18" />
    </linearGradient>

    <defs id="defs180">
      <filter
        id="Adobe_OpacityMaskFilter"
        filterUnits="userSpaceOnUse"
        x="225.10001"
        y="358.39999"
        width="178.3"
        height="134.8"
      >
        <feFlood result="back" id="feFlood175" />
        <feBlend in="SourceGraphic" in2="back" mode="normal" id="feBlend177" />
      </filter>
    </defs>
    <mask
      maskUnits="userSpaceOnUse"
      x="225.1"
      y="358.4"
      width="178.3"
      height="134.8"
      id="mask201"
    >
      <g filter="url(#Adobe_OpacityMaskFilter)" id="g199">
        <defs id="defs187">
          <filter
            id="Adobe_OpacityMaskFilter_1_"
            filterUnits="userSpaceOnUse"
            x="225.10001"
            y="358.39999"
            width="178.3"
            height="134.8"
          >
            <feFlood result="back" id="feFlood182" />
            <feBlend
              in="SourceGraphic"
              in2="back"
              mode="normal"
              id="feBlend184"
            />
          </filter>
        </defs>
        <mask
          maskUnits="userSpaceOnUse"
          x="225.1"
          y="358.4"
          width="178.3"
          height="134.8"
          id="SVGID_4_"
        >
          <g filter="url(#Adobe_OpacityMaskFilter_1_)" id="g189"></g>
        </mask>
        <linearGradient
          id="SVGID_5_"
          gradientUnits="userSpaceOnUse"
          x1="225.1201"
          y1="425.78589"
          x2="403.45071"
          y2="425.78589"
        >
          <stop offset="0" style="stop-color: #767676" id="stop192" />
          <stop offset="1" style="stop-color: #000000" id="stop194" />
        </linearGradient>
        <path
          mask="url(#SVGID_4_)"
          fill="url(#SVGID_5_)"
          d="m 323.7,361.9 c -34,7.6 -85.1,64.6 -95.3,96.1 -7,21.3 -4,43.4 22.6,32.2 12.5,-5.3 28.1,-32.8 39.2,-42.1 14.5,-12.2 30.6,-22.7 48.6,-26.2 20,-3.9 45,5.6 57.8,-17.2 30,-53.5 -45.9,-48.8 -72.9,-42.8 z"
          id="path197"
        />
      </g>
    </mask>
    <linearGradient
      id="SVGID_6_"
      gradientUnits="userSpaceOnUse"
      x1="225.1201"
      y1="425.78589"
      x2="403.45071"
      y2="425.78589"
    >
      <stop offset="0" style="stop-color: #ffffff" id="stop203" />
      <stop offset="1" style="stop-color: #ffffff" id="stop205" />
    </linearGradient>

    <defs id="defs215">
      <filter
        id="Adobe_OpacityMaskFilter_2_"
        filterUnits="userSpaceOnUse"
        x="332.70001"
        y="484.89999"
        width="59.700001"
        height="110.2"
      >
        <feFlood result="back" id="feFlood210" />
        <feBlend in="SourceGraphic" in2="back" mode="normal" id="feBlend212" />
      </filter>
    </defs>
    <mask
      maskUnits="userSpaceOnUse"
      x="332.7"
      y="484.9"
      width="59.7"
      height="110.2"
      id="mask236"
    >
      <g filter="url(#Adobe_OpacityMaskFilter_2_)" id="g234">
        <defs id="defs222">
          <filter
            id="Adobe_OpacityMaskFilter_3_"
            filterUnits="userSpaceOnUse"
            x="332.70001"
            y="484.89999"
            width="59.700001"
            height="110.2"
          >
            <feFlood result="back" id="feFlood217" />
            <feBlend
              in="SourceGraphic"
              in2="back"
              mode="normal"
              id="feBlend219"
            />
          </filter>
        </defs>
        <mask
          maskUnits="userSpaceOnUse"
          x="332.7"
          y="484.9"
          width="59.7"
          height="110.2"
          id="SVGID_7_"
        >
          <g filter="url(#Adobe_OpacityMaskFilter_3_)" id="g224"></g>
        </mask>
        <linearGradient
          id="SVGID_8_"
          gradientUnits="userSpaceOnUse"
          x1="365.16199"
          y1="499.8551"
          x2="349.45901"
          y2="649.03387"
        >
          <stop offset="0" style="stop-color: #000000" id="stop227" />
          <stop offset="1" style="stop-color: #767676" id="stop229" />
        </linearGradient>
        <path
          mask="url(#SVGID_7_)"
          fill="url(#SVGID_8_)"
          d="m 332.7,484.9 c 2.8,19.9 1.9,154.5 53.3,95.3 26.7,-30.7 -38.8,-71.1 -53.3,-95.3 z"
          id="path232"
        />
      </g>
    </mask>
    <linearGradient
      id="SVGID_9_"
      gradientUnits="userSpaceOnUse"
      x1="365.16199"
      y1="499.8551"
      x2="349.45901"
      y2="649.03387"
    >
      <stop offset="0" style="stop-color: #ffffff" id="stop238" />
      <stop offset="1" style="stop-color: #ffffff" id="stop240" />
    </linearGradient>

    <defs id="defs250">
      <filter
        id="Adobe_OpacityMaskFilter_4_"
        filterUnits="userSpaceOnUse"
        x="422.70001"
        y="436.89999"
        width="70.099998"
        height="38.599998"
      >
        <feFlood result="back" id="feFlood245" />
        <feBlend in="SourceGraphic" in2="back" mode="normal" id="feBlend247" />
      </filter>
    </defs>
    <mask
      maskUnits="userSpaceOnUse"
      x="422.7"
      y="436.9"
      width="70.1"
      height="38.6"
      id="mask271"
    >
      <g filter="url(#Adobe_OpacityMaskFilter_4_)" id="g269">
        <defs id="defs257">
          <filter
            id="Adobe_OpacityMaskFilter_5_"
            filterUnits="userSpaceOnUse"
            x="422.70001"
            y="436.89999"
            width="70.099998"
            height="38.599998"
          >
            <feFlood result="back" id="feFlood252" />
            <feBlend
              in="SourceGraphic"
              in2="back"
              mode="normal"
              id="feBlend254"
            />
          </filter>
        </defs>
        <mask
          maskUnits="userSpaceOnUse"
          x="422.7"
          y="436.9"
          width="70.1"
          height="38.6"
          id="SVGID_10_"
        >
          <g filter="url(#Adobe_OpacityMaskFilter_5_)" id="g259"></g>
        </mask>
        <linearGradient
          id="SVGID_11_"
          gradientUnits="userSpaceOnUse"
          x1="457.71091"
          y1="442.90341"
          x2="457.71091"
          y2="499.909"
        >
          <stop offset="0" style="stop-color: #000000" id="stop262" />
          <stop offset="1" style="stop-color: #767676" id="stop264" />
        </linearGradient>
        <path
          mask="url(#SVGID_10_)"
          fill="url(#SVGID_11_)"
          d="m 422.7,436.9 c 12.8,19.6 45.6,39.3 68.6,38.5 12,-38.8 -51.5,-22.1 -68.6,-38.5 z"
          id="path267"
        />
      </g>
    </mask>
    <linearGradient
      id="SVGID_12_"
      gradientUnits="userSpaceOnUse"
      x1="457.71091"
      y1="442.90341"
      x2="457.71091"
      y2="499.909"
    >
      <stop offset="0" style="stop-color: #ffffff" id="stop273" />
      <stop offset="1" style="stop-color: #ffffff" id="stop275" />
    </linearGradient>
  </defs>

  <g id="g4485">
    <g id="g4821">
      <rect
        clip-path="url(#SVGID_2_)"
        fill="url(#SVGID_3_)"
        width="1400"
        height="980"
        id="rect21"
        style="display: inline; fill: url(#SVGID_3_)"
        x="0"
        y="0"
      />
      <g id="nuvens-4">
        <ellipse
          opacity="0.22"
          clip-path="url(#SVGID_2_)"
          fill="#fffefa"
          cx="785"
          cy="559.29999"
          rx="424"
          ry="21.700001"
          id="ellipse23"
        />
        <ellipse
          opacity="0.22"
          clip-path="url(#SVGID_2_)"
          fill="#fffefa"
          cx="845"
          cy="175"
          rx="424"
          ry="16.5"
          id="ellipse65"
        />
      </g>
      <path
        fill="#b23d0f"
        d="m 942.3,712.3 c -5.6,3.6 -3.8,11.4 -3.2,17 0.7,7.2 1.9,14.5 3,21.7 2.3,14.8 4.1,30.1 7.4,44.7 1.2,5.1 6.9,8 11.7,6.7 5.5,-1.5 7.4,-6.6 6.7,-11.7 -2.1,-14.8 -6,-29.6 -9,-44.3 -1.1,-5.3 -6.4,-40.6 -16.6,-34.1 z"
        id="path25"
      />
      <path
        fill="#fb621e"
        d="m 1051.9,569.8 c 9.1,2.7 25.1,7 31.2,13.7 -10.9,-0.7 -21.2,5 -31,8.2 -2.2,-6.2 -2.4,-15.9 -0.2,-21.9 z"
        id="path29"
      />
      <path
        fill="#fb621e"
        d="m 1046.1,555.9 c 11,-6.4 35.2,-3.9 44,4.4 -13.3,2.4 -27.9,17.5 -38,25.7 -2.1,-9.4 -3.6,-23.8 -6,-30.1 z"
        id="path31"
      />
      <path
        fill="#d3132a"
        d="m 967.2,477 c -2.6,-13.6 -6.5,-36.3 9.3,-43.8 14.6,-6.9 23.6,10.2 29.9,19.3 4,-8.5 18,-13.4 27,-10.4 11.2,3.8 10.1,17.1 10.6,26.6 14.7,-3.1 13.3,15.6 10,24.3 -6.3,16.5 -12.9,10.4 -24.2,2.9 -19.9,-13.3 -41.2,-13 -62.6,-18.9 z"
        id="path33"
      />
      <path
        fill="#f71b2c"
        d="m 968.4,481.6 c -2.6,-13.6 -6.5,-36.3 9.3,-43.8 14.6,-6.9 23.6,10.2 29.9,19.3 4,-8.5 18,-13.4 27,-10.4 11.2,3.8 10.1,17.1 10.6,26.6 14.7,-3.1 13.3,15.6 10,24.3 -6.3,16.5 -12.9,10.4 -24.2,2.9 -19.9,-13.3 -41.3,-13 -62.6,-18.9 z"
        id="path35"
      />
      <path
        fill="#fdb813"
        d="m 830.7,591.2 c -0.9,6.8 4.9,12.7 11.7,12.2 23.4,-1.7 45.5,-8 59.9,-29 16.2,-23.5 22.1,-52.6 38.3,-76.2 42.8,-62.3 116.2,-22.3 124.8,39.7 7.1,51.7 5.6,123.5 -33,164.8 -34.7,37.1 -106.8,58.9 -156.2,45.3 -57.8,-15.9 -77.3,-63.3 -99.9,-112.4 -7,-1.3 -13.7,-5.8 -16.4,-12.2 -2.3,-5.7 0.9,-12.2 6.7,-14.1 7.9,-2.6 11.6,0.7 15.2,-14 2.2,-9.2 -4.9,-26 14,-22.7 5.3,0.9 7,3.5 10,9.1 0.6,1.1 2.2,4.5 5.7,5 3.2,0.5 3.9,-3.3 6.5,-5.9 7.5,-7.4 14.1,-0.4 12.7,10.4 z"
        id="path37"
      />
      <path
        fill="#8b431f"
        d="m 935,606.9 c -2.2,-21.3 20.2,-15.5 32.2,-9.8 17.9,8.5 23.5,23 23.5,42 0,47.6 -51.7,54 -88.1,43.5 -20.8,-6 -43.7,-18.3 -51.8,-39.1 -2.8,-7.3 -7.4,-20.3 -0.4,-26.4 7.2,-6.3 16.8,-0.4 23.5,2.8 -1,-26.8 30.3,-15.7 42.6,-6.1 -0.8,-9.6 11.3,-16.1 18.5,-6.9 z"
        id="path39"
      />
      <circle fill="#8b431f" cx="1031.2" cy="530.79999" r="11.7" id="olho" />
      <path
        fill="#662f17"
        d="m 903.8,676.8 c -20.8,-6 -43.7,-18.3 -51.8,-39.1 -1.7,-4.5 -4.1,-11.2 -4.1,-17.1 -3,6.7 0.6,16.8 2.9,22.9 8.1,20.9 31,33.2 51.8,39.1 34.2,9.9 82,4.7 87.5,-35.6 -9.1,35 -53.8,39.2 -86.3,29.8 z"
        id="path43"
      />
      <path
        fill="#8b431f"
        d="m 936,597.9 c -0.3,0.7 -0.6,1.4 -0.8,2.2 0.3,0.3 0.6,0.6 0.9,1 -0.1,-1.1 -0.1,-2.2 -0.1,-3.2 z"
        id="path47"
      />
      <path
        fill="#9b4c29"
        d="m 941.5,619.5 c -1.6,-16.1 15.3,-11.7 24.3,-7.4 13.5,6.4 17.8,17.4 17.8,31.7 0,36 -39.1,40.8 -66.6,32.9 -15.7,-4.5 -33,-13.8 -39.2,-29.6 -2.1,-5.5 -5.6,-15.3 -0.3,-19.9 5.5,-4.8 12.7,-0.3 17.8,2.1 -0.7,-20.3 22.9,-11.9 32.2,-4.6 -0.6,-7.3 8.6,-12.2 14,-5.2 z"
        id="path49"
      />
      <path
        fill="#e59f13"
        d="m 935.9,546.6 c -16.5,23.7 37.3,44.2 53.1,29.1 1.3,22.3 25.6,25.5 39.4,12.8 1.2,12.1 20.3,15.9 29,10.4 -1.8,7.6 -13.3,8.2 -20.7,6.8 -2.7,-0.5 -7.6,-3 -9.6,-3.2 -5.1,-0.4 -4.1,0.6 -10.2,2 -16.5,3.8 -32.7,3.2 -39.6,-14.9 -20.7,1.8 -63,-18.8 -41.4,-43 z"
        id="path51"
      />
      <path
        fill="#b23d0f"
        d="m 898.8,715.3 c -5.6,3.6 -3.8,11.4 -3.2,17 0.7,7.2 1.9,14.5 3,21.7 2.3,14.8 4.1,30.1 7.4,44.7 1.2,5.1 6.9,8 11.7,6.7 5.5,-1.5 7.4,-6.6 6.7,-11.7 -2.1,-14.8 -6,-29.6 -9,-44.3 -1.1,-5.3 -6.4,-40.6 -16.6,-34.1 z"
        id="path55"
      />
      <path
        clip-path="url(#SVGID_2_)"
        fill="#aec4cf"
        d="m 148.9,450.8 c -6.8,-10.3 -9.8,-3.2 -16.8,3.5 -2.7,2.6 -6.8,5.4 -10.4,8.5 -0.5,-0.5 -1,-1 -1.5,-1.3 1.8,-4.1 4.2,-7.4 7.7,-10.7 0.4,-0.4 -0.1,-1.1 -0.6,-0.7 -3.7,2.5 -6.5,6.6 -8,10.9 -0.9,-0.4 -1.9,-0.5 -2.8,-0.4 -0.2,-5.4 -2.9,-11.3 -7.9,-13.7 -0.3,-0.2 -0.7,0.3 -0.4,0.6 4.1,3.9 7,7.8 7.6,13.2 -1.1,0.3 -2.1,1 -2.9,2 -3.1,-3.9 -7,-7.6 -9.5,-10.8 -5.9,-7.7 -7.7,-15.2 -16,-6.1 -2.8,3 -9.1,16.5 -8.7,20.3 1,9.5 9.4,9.5 14.8,15.9 -5.8,5.9 -12.7,13.6 -10.8,22.4 1.4,6.1 10.6,14.9 17.4,12.1 2.5,-1 6.5,-9.1 10.1,-18.2 0.2,1.2 0.5,2.1 0.9,2.5 3.3,2.9 4.9,-2.9 5.7,-5.1 0.1,-0.3 0.2,-0.5 0.3,-0.8 2.1,11.1 5.3,21.9 7.9,23.5 6.3,3.9 16.8,-3.3 19.1,-9.2 3.3,-8.4 -2.3,-17.1 -7.1,-23.8 6.4,-5.5 14.6,-4.1 17.1,-13.4 1.2,-3.5 -2.9,-17.8 -5.2,-21.2 z"
        id="borb-1"
      />
      <g id="nuvens-1">
        <ellipse
          opacity="0.22"
          clip-path="url(#SVGID_2_)"
          fill="#fffefa"
          cx="499"
          cy="395.29999"
          rx="482.67123"
          ry="21.700001"
          id="ellipse67"
          transform="translate(82.206,-7.3758429)"
        />
        <ellipse
          opacity="0.22"
          clip-path="url(#SVGID_2_)"
          fill="#fffefa"
          id="ellipse69"
          transform="translate(82.206,-7.3758429)"
          ry="21.700001"
          rx="368.23108"
          cy="47.299999"
          cx="365"
        />
      </g>
      <g id="nuvens-2">
        <ellipse
          opacity="0.22"
          clip-path="url(#SVGID_2_)"
          fill="#fffefa"
          cx="129"
          cy="127.3"
          rx="125.7832"
          ry="16.9"
          id="ellipse73"
          transform="matrix(2.0889391,0,0,1,-212.07588,-1.5295486)"
        />
        <ellipse
          opacity="0.22"
          clip-path="url(#SVGID_2_)"
          fill="#fffefa"
          cx="647"
          cy="222.60001"
          rx="474"
          ry="13"
          id="ellipse75"
        />
      </g>
      <g id="nuvens-3">
        <ellipse
          opacity="0.22"
          clip-path="url(#SVGID_2_)"
          fill="#fffefa"
          cx="221"
          cy="279.29999"
          rx="208.89865"
          ry="25.29921"
          id="ellipse63"
          transform="matrix(2,8.971807e-4,0,1,-262.72619,29.856679)"
        />
        <ellipse
          opacity="0.22"
          clip-path="url(#SVGID_2_)"
          fill="#fffefa"
          id="ellipse71"
          transform="matrix(1.8626238,-0.0096241,0,1,-879.60438,18.417011)"
          d="M 1260.9221,124.9366 A 212.55388,22.493195 0 0 1 962.55922,121.28978 212.55388,22.493195 0 0 1 996.52412,89.709957 212.55388,22.493195 0 0 1 1295,93.251697 212.55388,22.493195 0 0 1 1262.0282,124.84331"
        />
        <ellipse
          opacity="0.22"
          clip-path="url(#SVGID_2_)"
          fill="#fffefa"
          cx="1331"
          cy="259.29999"
          rx="49.887398"
          ry="14.2"
          id="ellipse77"
          transform="matrix(6.0399944,0,0,1.4371154,-6840.6635,-61.2895)"
        />
      </g>
      <path
        fill="#b2b310"
        d="m 1399.6,731.1 c -0.2,-1.3 -0.4,-2.7 -0.5,-4 -0.4,-2.9 -5,-3.1 -4.7,0 0.2,1.8 0.3,3.6 0.4,5.4 -1,0.3 -2.1,0.6 -3.2,0.9 -0.8,-1.2 -1.5,-2.5 -2.1,-4 -1.3,-3.6 -1.4,-7.3 -0.7,-10.9 0,-0.1 0.1,-0.2 0.1,-0.2 0.4,-0.6 0.5,-1.3 0.3,-1.8 0.1,-0.2 0.1,-0.4 0.2,-0.6 0.6,-1.8 -1,-2.9 -2.5,-2.7 0,-0.7 0,-1.3 -0.1,-2 -0.1,-2.6 -3.9,-2.6 -4,0 -0.1,2.4 -0.2,4.8 -0.2,7.1 -0.7,1.1 -1.4,2.2 -2.2,3.4 0,-0.8 0.1,-1.7 0.1,-2.5 0,-2.8 -4,-2.7 -4.3,0 -0.4,3.6 -0.7,7.2 -1,10.8 0,0.1 -0.1,0.2 -0.2,0.2 -1.2,-0.2 -2.4,-0.4 -3.5,-0.6 -1.9,-4.4 -3.8,-8.8 -5.6,-13.2 -1.1,-2.5 -5.3,-0.7 -4.3,1.8 0.3,0.8 0.6,1.6 1,2.4 0.9,2.6 1.8,5.2 2.7,7.9 -1.5,-0.2 -2.9,-0.5 -4.3,-0.7 0.3,-2.2 0.5,-4.3 0.8,-6.5 0.1,-0.9 -0.5,-1.4 -1.2,-1.7 0.1,-2.8 0.1,-5.6 0.1,-8.4 0,-1.8 -2.7,-1.8 -2.8,0 -0.3,3.6 -0.6,7.2 -0.8,10.8 -1.4,-1 -3.7,0 -3.2,2.1 0.7,2.8 1.4,5.6 2.2,8.4 -0.2,1 -0.3,1.9 -0.5,2.9 -1.7,-3.7 -3.4,-7.4 -5.1,-11 -0.9,-2 -3.8,-0.3 -3,1.7 2.3,5.3 4.4,10.8 7,16 0,0.2 -0.1,0.5 -0.1,0.7 -1.2,0.3 -2.4,0.5 -3.6,0.8 -1.7,-2.9 -3.5,-5.8 -5.3,-8.6 0.3,-2.6 0.6,-5.2 0.9,-7.9 0.2,-2 -2.9,-2.5 -3.6,-0.9 -0.7,-1.2 -2.4,-1.3 -3.3,-0.3 -0.8,-1.3 -1.7,-2.6 -2.5,-3.9 -1.4,-2.2 -4.9,-0.2 -3.6,2.1 0.5,1 1.1,2 1.6,3 -0.9,0 -1.8,0.4 -2.2,1.5 -1,3.2 -2.1,6.3 -3.2,9.5 -0.7,-3.7 -0.5,-7.5 0.9,-11.3 0.4,-1.2 -1.6,-2.1 -2.1,-0.9 -2.5,5.7 -2.6,11.9 -0.5,17.4 -0.2,0.6 -0.4,1.2 -0.6,1.9 -2.3,-1.6 -4.5,-3.2 -6.8,-4.8 -0.2,-2.1 -0.4,-4.2 -0.7,-6.3 1,-4.8 1.9,-9.7 3,-14.4 0.5,-2.4 -3.1,-3.4 -3.7,-1 -0.3,1.1 -0.5,2.3 -0.8,3.4 -0.5,-3.6 -0.9,-7.1 -1.3,-10.7 -0.2,-2.1 -3.5,-2.1 -3.3,0 0.4,4.5 0.8,8.9 1.1,13.4 -0.4,1.7 -0.8,3.5 -1.2,5.2 -0.8,0 -1.6,0.4 -2.1,1.3 -0.8,1.5 -1.6,3 -2.5,4.5 -1.3,-1.9 -2.7,-3.7 -4,-5.6 0.7,-0.9 1.4,-1.8 2.1,-2.7 0.9,-1.1 -0.6,-2.6 -1.5,-1.5 -0.6,0.8 -1.3,1.6 -1.9,2.4 -1.6,-1.5 -4.5,0.3 -3.2,2.4 0.2,0.3 0.4,0.5 0.6,0.8 -0.3,0.4 -0.6,0.7 -0.9,1.1 -0.2,0 -0.3,0.1 -0.4,0.2 -0.2,-3.2 -0.5,-6.4 -0.7,-9.6 -0.2,-3 -4.9,-3.1 -4.8,0 0.1,1.2 0.1,2.5 0.2,3.7 -1.1,0 -2.2,0.8 -2.1,2.3 0.2,4.1 0.4,8.2 0.6,12.3 -0.3,0.3 -0.6,0.7 -0.9,1 -0.4,-4.4 -0.9,-8.9 -1.3,-13.3 -0.3,-2.5 -4.1,-2.6 -4,0 0,1.4 0.1,2.8 0.1,4.2 -0.3,0.3 -0.5,0.6 -0.6,1 -0.3,0.8 -0.6,1.6 -0.9,2.5 -0.1,-1.2 -0.1,-2.4 -0.1,-3.6 0,-0.9 -0.5,-1.6 -1.2,-1.8 -0.4,-3.3 -0.4,-6.7 -0.3,-10.2 0.1,-1.2 -1.7,-1.3 -2,-0.3 -1.7,4.9 -1.9,10.4 -0.9,15.6 -0.1,2 -0.2,4 -0.3,6 -1.6,-2.9 -2.9,-5.9 -4.1,-9.1 -0.1,-0.2 -0.2,-0.3 -0.3,-0.4 0.9,-2.4 1.7,-4.9 2.6,-7.3 0.6,-1.8 -2.3,-3.1 -3.1,-1.3 -1.7,3.5 -3.4,7.1 -5,10.7 -0.8,-0.1 -1.6,0.2 -2.1,0.8 0,-0.2 0,-0.5 0,-0.7 0.1,-2.4 -3.6,-2.4 -3.8,0 0,0.1 0,0.3 0,0.4 -0.7,-0.2 -1.4,0.1 -1.7,0.9 0.2,-3.1 0.4,-6.2 0.6,-9.3 0.1,-1.6 -2.2,-1.5 -2.4,0 -0.5,4.1 -1.1,8.2 -1.7,12.2 -0.8,-0.5 -2,-0.5 -2.6,0.3 0,-0.2 0,-0.3 0,-0.5 0.1,-3 -4.4,-2.9 -4.6,0 -0.1,2 -0.3,4 -0.4,6 -0.2,0.1 -0.4,0.2 -0.5,0.3 -2.8,-3.3 -5.7,-6.6 -8.6,-9.8 -0.9,-1 -2.7,0.4 -1.9,1.4 3.1,4 6.1,7.9 9.2,11.9 -0.6,3.2 -1.1,6.4 -1.6,9.6 -1.3,-1.2 -2.7,-2.4 -4,-3.6 0.7,-1.7 1.4,-3.3 2.1,-4.9 1.1,-2.4 -1.6,-4.5 -3.3,-3.5 0.5,-0.8 0.9,-1.7 1.4,-2.5 1.3,-2.3 -2.2,-4.3 -3.5,-2.1 -0.7,1.3 -1.5,2.5 -2.2,3.8 -1,-1.2 -3.2,-1.3 -3.9,0.4 0,-0.3 0,-0.7 0,-1 0.1,-2.1 -3,-2 -3.2,0 -0.1,1.1 -0.2,2.2 -0.3,3.3 -0.6,-0.4 -1.3,-0.1 -1.6,0.4 0.1,-1.3 0.3,-2.6 0.4,-3.9 0.1,-1.7 -2.1,-2.3 -3.2,-1.4 -1.1,-1.6 -4.4,-1.1 -4.6,1.5 -0.4,4.7 -0.9,9.5 -1.3,14.2 -1.9,-2 -3.9,-3.9 -5.9,-5.8 0.2,-6.8 0.3,-13.7 0.6,-20.4 0.1,-3.1 -4.7,-3.1 -4.9,0 -0.1,2.4 -0.3,4.8 -0.5,7.2 -1,-0.6 -2.3,-0.5 -3,0.8 -1,2 -2,3.9 -3,5.8 -0.8,-0.6 -1.7,-1.3 -2.5,-1.9 0,-0.7 0,-1.3 0,-2 0,-2.4 -3.7,-2.4 -3.8,0 0,1.7 0,3.4 -0.1,5.1 -1.1,-2.1 -2.2,-4.1 -3.2,-6.2 -1.3,-2.5 -4.9,-0.3 -3.7,2.2 0.6,1.2 1.1,2.4 1.7,3.5 -0.5,0.1 -1,0.4 -1.2,1 -0.4,1.2 -0.7,2.4 -1.1,3.6 -0.1,-3.1 -0.2,-6.1 -0.3,-9.2 -0.1,-2.7 -4.2,-2.7 -4.2,0 0,2 0,4 -0.1,6 -0.8,-0.9 -1.5,-1.9 -2.3,-2.8 -1.2,-1.5 -3.4,0.6 -2.2,2.2 1.2,1.6 2.5,3.1 3.7,4.7 -3,-1.2 -6.1,-2.4 -9.1,-3.7 -0.4,-0.5 -0.8,-1 -1.1,-1.6 -1.7,-2.4 -5.7,-0.3 -4,2.4 2.6,4.2 5.2,8.4 7.8,12.6 -0.7,2 -1.4,4.1 -2,6.2 -0.2,0 -0.4,0 -0.6,0.1 -2.3,-5.6 -4.7,-11.2 -7,-16.8 0,-1.1 0.1,-2.2 0.1,-3.3 0,-0.9 -1.4,-1.1 -1.5,-0.2 -0.1,0.3 -0.1,0.6 -0.2,1 -1.1,-0.4 -2.5,0.3 -2,1.6 0.4,1 0.8,2.1 1.2,3.1 -0.8,5.1 -1.4,10.3 -2.1,15.5 0,0.1 0,0.1 0,0.2 -261,25.1 -598.7,20.9 -671.8,6.9 -81.8,-15.7 -340.2,-73.6 -446.6,-97.5 0.4,-2.8 0.8,-5.5 1.2,-8.3 1,-3.3 1.9,-6.5 2.6,-9.9 0.2,-0.9 -0.4,-1.7 -1,-2 0.4,-3.5 0.9,-7 1.3,-10.4 0.1,-0.8 -1.3,-1 -1.5,-0.2 -0.5,3.6 -1,7.1 -1.5,10.7 -0.2,0.1 -0.4,0.4 -0.6,0.7 -1,2 -1.8,4 -2.6,6.1 0.8,-4.2 1.6,-8.4 2.4,-12.5 0.1,-0.7 -0.1,-1.3 -0.5,-1.8 0.3,-0.7 0.6,-1.4 0.9,-2.1 0.3,-0.7 0.1,-1.4 -0.2,-1.8 0.5,-1.7 1.1,-3.3 1.6,-5 0.3,-0.9 -1.1,-1.3 -1.5,-0.4 -0.6,1.6 -1.1,3.1 -1.7,4.7 -0.9,-0.1 -1.9,0.3 -2.3,1.4 -0.7,1.8 -1.5,3.6 -2.2,5.4 -0.4,0 -0.8,0.2 -1,0.8 -0.3,1.2 -0.6,2.4 -0.8,3.7 0,-0.2 0.1,-0.5 0.1,-0.7 0.3,-1.7 -0.8,-2.9 -2.1,-3.3 1.4,-4.2 2.8,-8.4 4.1,-12.7 0.3,-0.8 -1,-1.1 -1.3,-0.3 -0.2,0.5 -0.4,0.9 -0.5,1.4 -0.1,-0.7 -1.3,-1 -1.5,-0.1 -0.7,2.4 -1.4,4.8 -2.1,7.2 -0.6,-1.4 -2.4,-1.7 -3.7,-1 0.3,-1.1 0.6,-2.2 1,-3.3 0.8,-2.6 -3.3,-3.7 -4,-1.1 -0.4,1.4 -0.8,2.7 -1.2,4.1 0,-0.3 0,-0.6 0,-0.9 0.5,-2.2 1.1,-4.4 1.6,-6.5 0.2,-0.6 -0.8,-0.9 -1,-0.3 -0.2,0.7 -0.5,1.5 -0.7,2.2 0,0 0,0 0,0 0,-0.9 -1.3,-0.9 -1.4,0 0,1.5 0,3.1 -0.1,4.6 0,0.1 -0.1,0.2 -0.1,0.3 -0.2,-0.7 -0.6,-1.3 -1.1,-1.6 0.1,-0.4 0.2,-0.8 0.2,-1.3 0,-0.3 -0.4,-0.5 -0.5,-0.2 -0.2,0.4 -0.3,0.8 -0.5,1.2 -1,-0.3 -2.2,-0.1 -3.1,0.5 0.1,-0.5 0.2,-1 0.2,-1.5 0,-0.3 -0.4,-0.4 -0.5,-0.1 -0.4,1.2 -0.8,2.4 -1.2,3.6 -0.1,0.1 -0.2,0.3 -0.2,0.5 0,0.1 0,0.2 0,0.3 -0.4,1.3 -0.8,2.6 -1.1,3.8 -0.1,-0.3 -0.3,-0.6 -0.4,-0.9 0.8,-3.6 1.5,-7.3 2.3,-10.9 0.2,-1 -0.5,-1.7 -1.3,-1.9 0.2,-0.9 0.4,-1.8 0.5,-2.8 0.2,-0.8 -1,-1.1 -1.2,-0.3 -0.3,1.2 -0.5,2.4 -0.8,3.6 -0.1,0.1 -0.2,0.3 -0.2,0.5 -0.8,3.6 -1.7,7.2 -2.5,10.9 -0.4,-0.7 -0.9,-1.4 -1.4,-2 0,-0.8 -0.1,-1.6 -0.1,-2.4 0,-0.5 -0.7,-0.5 -0.7,0 0,0.1 0,0.3 0,0.4 0,-0.1 -0.1,-0.2 -0.1,-0.3 -0.2,-0.7 -1.1,-0.5 -1.3,0.1 -0.1,-0.1 -0.3,-0.2 -0.4,-0.3 -0.3,-0.2 -0.6,-0.3 -1,-0.3 -0.1,-0.4 -0.3,-0.7 -0.6,-1 0.1,-1.6 0.2,-3.1 0.3,-4.7 0.1,-0.9 -1.3,-0.9 -1.4,0 -0.1,1.4 -0.2,2.7 -0.4,4.1 -0.7,0 -1.5,0.4 -1.7,1.4 -0.3,1.6 -0.6,3.1 -0.9,4.7 -0.4,-0.1 -0.9,0 -1.3,0.1 -0.5,-0.3 -1.1,-0.5 -1.6,-0.4 -0.6,-2.6 -1.3,-5.1 -2.3,-7.5 0.1,-0.8 -0.3,-0.8 -0.2,-0.5 0.2,2.7 0.7,5.4 1.3,8 -0.3,0.3 -0.5,0.6 -0.5,1.1 -0.3,2.4 -0.7,4.9 -1,7.3 -1,0.6 -1.8,1.9 -0.9,3 0.1,0.2 0.3,0.4 0.4,0.6 -0.3,2 -0.6,4 -0.8,6 -0.1,0.9 -0.3,1.7 -0.4,2.6 L -47,725 l 4,456 H 1429 V 721 c -8.9,3.5 -18.7,6.9 -29.4,10.1 z M 37.2,677.4 c 1,-2.8 1.9,-5.6 2.7,-8.4 -0.5,2.9 -1,5.8 -1.5,8.7 -0.4,-0.1 -0.8,-0.2 -1.2,-0.3 z m -26.5,-6.6 c -0.4,-0.5 -0.8,-1 -1.2,-1.5 0.4,0.5 0.8,0.9 1.2,1.5 0,-0.1 0,-0.1 0,0 z m 19.3,-10 c -0.3,-0.1 -0.6,-0.2 -1,-0.2 0.5,-2 0.9,-3.9 1.4,-5.9 -0.1,2.1 -0.2,4.1 -0.4,6.1 z m -18,-0.6 c 0,0.2 0,0.3 0,0.5 -1,-1.9 -2.1,-3.7 -3.2,-5.5 0,-0.5 0.1,-1 0.1,-1.5 0.8,2.2 2,4.4 3.1,6.5 z m 1370.3,71.4 c -0.4,-0.1 -0.9,-0.2 -1.3,-0.3 0.5,-0.7 0.9,-1.5 1.4,-2.2 0,0.8 0,1.7 -0.1,2.5 z m -13.8,6.1 c 0.2,0.5 0.3,1 0.5,1.5 -1.7,0.4 -3.5,0.8 -5.2,1.2 -0.3,-1 -0.7,-1.9 -1,-2.9 -0.6,-1.9 -1.2,-3.7 -1.8,-5.6 2,0.5 4.1,1.1 6.1,1.7 0.4,1.4 0.9,2.8 1.4,4.1 z m -182.6,19.9 c 0,1.8 0,3.6 0,5.5 -1,-1.5 -2.1,-3 -3.2,-4.6 0.2,-0.7 0.4,-1.3 0.6,-2 0.9,0.4 1.7,0.8 2.6,1.1 z m 107.3,-8.2 c 0,1.5 0,3.1 0,4.7 -0.1,0 -0.2,0 -0.3,0 0.1,-1.4 0,-2.8 -0.1,-4.2 0.1,-0.1 0.2,-0.3 0.4,-0.5 z m 10.6,-13.6 c 0,-0.2 0,-0.4 0,-0.6 0.9,1.3 1.8,2.7 2.7,4 -0.9,-1.1 -1.8,-2.3 -2.7,-3.4 z m -25,10.2 c -0.1,-0.3 -0.2,-0.6 -0.2,-0.9 0.2,0.4 0.4,0.8 0.6,1.2 -0.2,-0.1 -0.3,-0.2 -0.4,-0.3 z m -5.7,-4.7 c -0.1,0 -0.2,0 -0.3,0 0.1,-0.2 0.1,-0.3 0.2,-0.5 0.1,0.2 0.1,0.3 0.1,0.5 z m -16.1,18.2 c 0,-0.1 0.1,-0.3 0.1,-0.4 0,0.1 0,0.2 -0.1,0.4 0,0 0,0 0,0 z m -66,8 c 0,-1.8 0,-3.7 -0.1,-5.5 0.1,-0.4 0.2,-0.8 0.3,-1.2 1.2,1.6 2.5,3.2 3.7,4.7 -0.3,0.6 -0.5,1.1 -0.8,1.7 -1,0 -2,0.1 -3.1,0.3 z m 17.6,-7.3 c 0.2,-0.4 0.4,-0.9 0.6,-1.3 0,0.7 0,1.5 -0.1,2.2 -0.1,-0.4 -0.3,-0.6 -0.5,-0.9 z m 6.2,0.5 c 1.2,1.2 2.5,2.5 3.8,3.6 -1.4,0.2 -2.7,0.3 -4.1,0.5 0.1,-1.3 0.2,-2.7 0.3,-4.1 z m -18.3,1.5 c -0.1,-0.1 -0.1,-0.1 -0.2,-0.2 0.1,0 0.2,0.1 0.2,0.1 0.1,0 0.1,0 0,0.1 z m 38.6,0.2 c 0.3,-0.9 0.6,-1.9 0.9,-2.8 0,-0.1 0.1,-0.1 0.1,-0.2 0.1,0.3 0.2,0.5 0.3,0.8 -0.2,0.4 -0.4,0.8 -0.5,1.2 -0.2,0.3 -0.3,0.7 -0.5,1 -0.2,-0.1 -0.3,-0.1 -0.3,0 z m 32.8,-9.1 c 0,0.6 0,1.1 0,1.7 0,0.9 0,1.9 -0.1,2.9 -0.1,0 -0.1,0 -0.2,0 0.1,-1.5 0.2,-3 0.3,-4.6 z m 4.9,1.7 c -0.1,-3.2 -0.1,-6.3 -0.2,-9.5 0.7,1 1.4,2 2.2,3 0.3,1.4 0.7,2.9 1,4.3 0.3,1.2 0.5,2.5 0.7,3.8 -1.2,0.2 -2.4,0.4 -3.6,0.5 -0.1,-0.6 -0.1,-1.4 -0.1,-2.1 z m 66.1,-21 c -0.1,3.9 -0.1,7.9 0,11.8 -1,0.2 -1.9,0.4 -2.9,0.6 0.8,-4.5 1.5,-9.1 2.3,-13.6 0.2,0.4 0.4,0.8 0.6,1.2 z m 5.5,9.9 c 0.1,0.2 0.3,0.5 0.5,0.7 -0.2,0 -0.4,0.1 -0.5,0.1 0,-0.2 0,-0.5 0,-0.8 z m -18.1,4.2 c 0,0.1 0,0.1 -0.1,0.2 -1.6,0.3 -3.3,0.6 -5,0.9 -0.1,-1.9 -0.3,-3.7 -0.4,-5.6 1.9,1.6 3.7,3 5.5,4.5 z m -97.9,11.7 c 0.4,-3.4 0.9,-6.8 1.3,-10.2 0,0.2 0.1,0.3 0.3,0.5 0.4,0.4 0.7,0.8 1.1,1.2 -0.3,3 -0.6,6 -0.9,9 -0.5,1 -1.1,2 -1.6,2.9 -0.2,0 -0.4,0.1 -0.6,0.1 0.2,-1.2 0.3,-2.4 0.4,-3.5 z m -18.5,-13 c -0.2,0.4 -0.4,0.8 -0.6,1.1 0,0 -0.1,-0.1 -0.1,-0.1 0.2,-0.5 0.5,-1 0.7,-1.5 0.1,0.2 0.1,0.4 0,0.5 z m -6.7,2.5 c -0.2,0.3 -0.4,0.7 -0.5,1 -0.2,-0.4 -0.5,-0.7 -0.7,-1.1 0,-0.3 0,-0.6 0,-0.9 0.4,0.3 0.8,0.7 1.2,1 z m -5.3,8.8 c -1.8,-0.7 -3.5,-1.4 -5.3,-2.1 0.5,-1.9 1.1,-3.7 1.6,-5.6 1.2,2.6 2.4,5.1 3.7,7.7 z m -17.5,-2.8 c 0.2,0.1 0.5,0.2 0.7,0.3 -0.1,0.2 -0.1,0.3 -0.2,0.5 -0.1,-0.2 -0.3,-0.5 -0.5,-0.8 z m 0.1,10.1 c 0.6,1 1.3,2 2,3 -1,0.1 -2,0.2 -3,0.3 0.3,-1.1 0.6,-2.2 1,-3.3 z m -11.7,-5.9 c 1.3,3.3 2.5,6.6 3.8,9.8 -1.5,0.1 -3,0.3 -4.5,0.4 0.3,-3.3 0.5,-6.8 0.7,-10.2 z"
        id="path79"
      />
      <path
        fill="none"
        d="m 30.4,654.7 c -0.5,2 -0.9,3.9 -1.4,5.9 0.3,0 0.7,0.1 1,0.2 0.2,-2 0.3,-4 0.4,-6.1 z"
        id="path81"
      />
      <path
        fill="none"
        d="m 10.7,670.8 c 0,-0.1 0,-0.1 0,0 -0.4,-0.5 -0.8,-1 -1.2,-1.5 0.4,0.5 0.8,1 1.2,1.5 z"
        id="path83"
      />
      <path
        fill="none"
        d="m 12,660.2 c -1.1,-2.1 -2.3,-4.3 -3.1,-6.6 0,0.5 -0.1,1 -0.1,1.5 1.1,1.8 2.1,3.7 3.2,5.5 0,-0.1 0,-0.2 0,-0.4 z"
        id="path87"
      />
      <path
        fill="#ffeacf"
        d="m 26.2,757.5 c -2.3,1.3 -1.4,7.1 2.1,12.8 3.5,5.7 8.2,9.3 10.6,7.9 2.3,-1.3 1.4,-7.1 -2.1,-12.8 -3.5,-5.7 -8.2,-9.3 -10.6,-7.9 z"
        id="path91"
      />
      <path
        fill="#ffeacf"
        d="m 13,783 c 0.3,2.5 6.3,3.7 13.4,2.7 7.1,-1 12.6,-3.8 12.4,-6.4 -0.3,-2.5 -6.3,-3.7 -13.4,-2.7 -7.1,1 -12.7,3.9 -12.4,6.4 z"
        id="path93"
      />
      <path
        fill="#ffeacf"
        d="m 35.8,805.1 c 2.7,0.2 5.6,-5.1 6.5,-11.8 0.9,-6.7 -0.5,-12.4 -3.1,-12.6 -2.7,-0.2 -5.6,5.1 -6.5,11.8 -0.9,6.8 0.5,12.4 3.1,12.6 z"
        id="path95"
      />
      <ellipse
        transform="rotate(-20.377663)"
        fill="#ffc215"
        cx="-234.73544"
        cy="743.28461"
        rx="7.5998554"
        ry="7.099865"
        id="ellipse101"
        style="stroke-width: 0.999981"
      />
      <path
        clip-path="url(#SVGID_2_)"
        fill="#9e9a0a"
        d="m 69.7,756.4 c 0,0 -37,103 -28,132.5 9,29.6 -18,41.4 -33,70.9 -15,29.6 3,38.4 39,56.2 36,17.7 342,-11.8 351,-17.7 9,-5.9 72,-8.9 111,-17.7 39,-8.8 207,20.6 258,0 51,-20.6 105,0 144,-17.8 39,-17.7 18,-23.6 81,-29.6 63,-5.9 48,-26.6 87,-47.3 39,-20.7 60,-8.9 96,-38.4 29.3,-24 15.7,-79.5 9.6,-99.3 -0.6,-0.7 -1.1,-1.4 -1.6,-2.1 -1.2,-1.5 -3.4,0.6 -2.2,2.2 1.2,1.6 2.5,3.1 3.7,4.7 -3,-1.2 -6.1,-2.4 -9.1,-3.7 -0.4,-0.5 -0.8,-1 -1.1,-1.6 -1.7,-2.4 -5.7,-0.3 -4,2.4 2.6,4.2 5.2,8.4 7.8,12.6 -0.7,2 -1.4,4.1 -2,6.2 -0.2,0 -0.4,0 -0.6,0.1 -2.3,-5.6 -4.7,-11.2 -7,-16.8 0,-1.1 0.1,-2.2 0.1,-3.3 0,-0.9 -1.4,-1.1 -1.5,-0.2 -0.1,0.3 -0.1,0.6 -0.2,1 -1.1,-0.4 -2.5,0.3 -2,1.6 0.4,1 0.8,2.1 1.2,3.1 -0.8,5.1 -1.4,10.3 -2.1,15.5 0,0.1 0,0.1 0,0.2 -261,25.1 -598.7,20.9 -671.8,6.9 -22.2,-4.3 -57.4,-11.6 -99,-20.6 -182.5,0.4 -324.2,0 -324.2,0 z"
        id="path105"
      />
      <path
        fill="#ce9f69"
        d="m 1038.3,853.2 c -18.5,-0.7 -59.4,-12.8 -67.5,-30.8 -10.3,-22.9 -12.9,-68.1 3.6,-89.1 27.4,-34.9 85.7,-53.1 127.9,-42.8 49.2,12 81.2,82.8 58.5,125.1 -19.8,37.3 -61.9,40 -122.5,37.6 z"
        id="path107"
      />
      <path
        fill="#ce9f69"
        d="m 1163.1,752.9 c -3.6,0.7 -7.4,1.3 -11.1,3.9 -12,8.2 -7.1,35.4 -9.7,48.2 -2.8,13.5 -16.9,40.1 -33.2,24.2 -11.5,-11.1 -11.1,-30.8 -18.7,-43.5 -1.6,-2.7 -3.8,-5.1 -6.3,-7.1 -3.1,4.8 -6.4,9.6 -11,13.4 -10.7,8.8 -20.3,16.1 -33.2,21.2 -20.6,8.1 -45.5,15 -68.2,10.6 9.5,17.2 48.8,28.7 66.7,29.4 60.6,2.4 102.7,-0.3 122.6,-37.6 9.6,-18 9.3,-41.1 2.1,-62.7 z"
        id="path109"
      />
      <path
        fill="#dbaa79"
        d="m 1039.8,813.2 c 13,-5.1 22.6,-12.5 33.2,-21.2 4.6,-3.8 7.9,-8.7 11,-13.4 -10.5,-8.7 -27.5,-11.5 -40,-8.4 -17.8,4.5 -30.3,12.6 -50,10.8 -11.9,-1.1 -22.9,-7.8 -30.5,-17.3 -2.6,20.6 0.8,44.1 7.4,58.6 0.2,0.5 0.5,1 0.7,1.4 22.6,4.6 47.5,-2.3 68.2,-10.5 z"
        id="path111"
      />
      <path
        fill="#804420"
        d="m 1102.4,690.6 c -42.3,-10.3 -100.5,7.8 -127.9,42.8 -6,7.7 -9.5,18.6 -11,30.4 7.6,9.4 18.6,16.2 30.5,17.3 19.7,1.8 32.2,-6.2 50,-10.8 15.4,-3.9 37.8,1.4 46.3,15.5 7.6,12.7 7.2,32.4 18.7,43.5 16.4,15.8 30.5,-10.7 33.2,-24.2 2.6,-12.8 -2.3,-40.1 9.7,-48.2 3.8,-2.6 7.5,-3.1 11.1,-3.9 -9.7,-29.2 -32.3,-55.5 -60.6,-62.4 z"
        id="path113"
      />
      <path
        fill="#bc693f"
        d="m 996,722 c 7.4,4 11.6,-6.6 19.7,0.1 7.4,6.2 4.1,12.1 15.2,13.8 10.1,1.5 12.7,-4.5 20.9,-8.3 15.2,-7 27.6,14.2 40.8,7 7.7,-4.2 1,-13.8 9.2,-18.6 7,-4 13.7,2.3 20,4.5 10.5,3.7 15.6,-0.1 17.7,-7.3 -10.4,-11.1 -23.2,-19.5 -37.3,-22.9 -34.3,-8.4 -79.2,2 -109.5,24.9 -0.2,3 0.6,5.4 3.3,6.8 z"
        id="path115"
      />
      <path
        fill="#7e421e"
        d="m 1019.7,714.4 c 2.3,-0.7 4.7,-1.3 7,-2 3.1,-0.9 1.8,-5.7 -1.3,-4.8 -2.3,0.7 -4.7,1.3 -7,2 -3.2,0.9 -1.8,5.7 1.3,4.8 z"
        id="path117"
      />
      <path
        fill="#7e421e"
        d="m 1050.7,710.2 c 1.3,0.7 2.7,1.3 4,2 1.2,0.6 2.7,0.3 3.4,-0.9 0.7,-1.1 0.3,-2.8 -0.9,-3.4 -1.3,-0.7 -2.7,-1.3 -4,-2 -1.2,-0.6 -2.7,-0.3 -3.4,0.9 -0.6,1.1 -0.3,2.7 0.9,3.4 z"
        id="path121"
      />
      <path
        fill="#7e421e"
        d="m 1064.3,697.4 c 2,0.7 4,1.3 6,2 3.1,1 4.4,-3.8 1.3,-4.8 -2,-0.7 -4,-1.3 -6,-2 -3,-1 -4.3,3.8 -1.3,4.8 z"
        id="path125"
      />
      <path
        fill="#7e421e"
        d="m 1092.7,700.2 c 1.3,1 2.7,2 4,3 1.1,0.8 2.8,0.2 3.4,-0.9 0.7,-1.3 0.2,-2.6 -0.9,-3.4 -1.3,-1 -2.7,-2 -4,-3 -1.1,-0.8 -2.8,-0.2 -3.4,0.9 -0.8,1.3 -0.2,2.6 0.9,3.4 z"
        id="path129"
      />
      <path
        fill="#7e421e"
        d="m 1080.7,710.3 c 0.6,1.3 1.3,2.7 1.9,4 0.6,1.2 2.3,1.5 3.4,0.9 1.3,-0.7 1.5,-2.2 0.9,-3.4 -0.6,-1.3 -1.3,-2.7 -1.9,-4 -0.6,-1.2 -2.3,-1.5 -3.4,-0.9 -1.2,0.7 -1.4,2.2 -0.9,3.4 z"
        id="path133"
      />
      <path
        fill="#7e421e"
        d="m 1034,699.7 c 1,-0.6 2.1,-1.2 3.1,-1.9 1.2,-0.7 1.6,-2.2 0.9,-3.4 -0.7,-1.2 -2.3,-1.6 -3.4,-0.9 -1,0.6 -2.1,1.2 -3.1,1.9 -1.2,0.7 -1.6,2.2 -0.9,3.4 0.7,1.2 2.2,1.6 3.4,0.9 z"
        id="path137"
      />
      <path
        fill="#7e421e"
        d="m 1063.3,717.7 c 1,1 2,2 3,3 1,1 2.6,1 3.5,0 1,-1 1,-2.6 0,-3.5 -1,-1 -2,-2 -3,-3 -1,-1 -2.6,-1 -3.5,0 -0.9,0.9 -0.9,2.5 0,3.5 z"
        id="path141"
      />
      <path
        fill="#7e421e"
        d="m 1108.4,704.2 c 1.4,0.2 2.7,0.5 4.1,0.7 1.3,0.2 2.7,-0.3 3.1,-1.7 0.3,-1.2 -0.4,-2.8 -1.7,-3.1 -1.4,-0.2 -2.7,-0.5 -4.1,-0.7 -1.3,-0.2 -2.7,0.3 -3.1,1.7 -0.4,1.3 0.3,2.9 1.7,3.1 z"
        id="path145"
      />
      <path
        fill="#7e421e"
        d="m 1066.7,710.4 c 1.7,-0.3 3.3,-0.7 5,-1 1.3,-0.3 2.1,-1.8 1.7,-3.1 -0.4,-1.4 -1.7,-2 -3.1,-1.7 -1.7,0.3 -3.3,0.7 -5,1 -1.3,0.3 -2.1,1.8 -1.7,3.1 0.4,1.3 1.7,2 3.1,1.7 z"
        id="path149"
      />
      <path
        fill="#7e421e"
        d="m 1001.9,712.2 c 0.7,1 1.3,2 2,3 0.7,1.1 2.2,1.6 3.4,0.9 1.1,-0.7 1.6,-2.3 0.9,-3.4 -0.7,-1 -1.3,-2 -2,-3 -0.7,-1.1 -2.2,-1.6 -3.4,-0.9 -1.1,0.7 -1.7,2.3 -0.9,3.4 z"
        id="path153"
      />
      <path
        fill="#7e421e"
        d="m 1082,694.3 c 2.3,-0.3 4.7,-0.6 7,-0.9 1.4,-0.2 2.5,-1 2.5,-2.5 0,-1.2 -1.1,-2.7 -2.5,-2.5 -2.3,0.3 -4.7,0.6 -7,0.9 -1.4,0.2 -2.5,1 -2.5,2.5 0,1.2 1.1,2.6 2.5,2.5 z"
        id="path157"
      />
      <path
        fill="#7e421e"
        d="m 1038.8,717.4 c -0.3,1 -0.6,2 -0.9,3 -0.4,1.3 0.5,2.7 1.7,3.1 1.3,0.4 2.7,-0.4 3.1,-1.7 0.3,-1 0.6,-2 0.9,-3 0.4,-1.3 -0.5,-2.7 -1.7,-3.1 -1.4,-0.4 -2.7,0.4 -3.1,1.7 z"
        id="path161"
      />
      <path
        fill="#7e421e"
        d="m 1043.6,703.9 c 1.4,-0.2 2.7,-0.4 4.1,-0.6 1.4,-0.2 2.1,-1.9 1.7,-3.1 -0.4,-1.4 -1.7,-1.9 -3.1,-1.7 -1.4,0.2 -2.7,0.4 -4.1,0.6 -1.4,0.2 -2.1,1.9 -1.7,3.1 0.4,1.3 1.7,1.9 3.1,1.7 z"
        id="path165"
      />
      <g id="g2680">
        <path
          fill="#ce9f69"
          d="m 536,626.9 c 4.1,110.6 -70.4,175.5 -165.1,179 -94.8,3.5 -173.9,-55.6 -178,-166.2 -4.1,-110.6 67,-265.3 161.8,-268.8 94.7,-3.5 177.2,145.5 181.3,256 z"
          id="path171"
        />
        <path
          fill="#ff6e8a"
          d="m 191.7,511.9 c 29,-66 56.5,-145.5 141,-162 66.8,-13.1 185.6,59.8 171,147 -33.3,5.1 -44.5,-36.8 -78,-30 -13.9,39.5 2.8,68.3 -15.7,110.3 -16.8,38.1 -80.8,70.7 -92.4,12.7 -4.4,-21.9 12.5,-124.3 -33.7,-102.8 -19.6,9.1 -14.2,41.6 -44.2,39.8 -19.5,-1.2 -28.6,-14.9 -48,-15 z"
          id="path173"
        />
        <path
          fill="url(#SVGID_6_)"
          d="m 323.7,361.9 c -34,7.6 -85.1,64.6 -95.3,96.1 -7,21.3 -4,43.4 22.6,32.2 12.5,-5.3 28.1,-32.8 39.2,-42.1 14.5,-12.2 30.6,-22.7 48.6,-26.2 20,-3.9 45,5.6 57.8,-17.2 30,-53.5 -45.9,-48.8 -72.9,-42.8 z"
          id="path208"
          style="fill: url(#SVGID_6_)"
        />
        <path
          fill="url(#SVGID_9_)"
          d="m 332.7,484.9 c 2.8,19.9 1.9,154.5 53.3,95.3 26.7,-30.7 -38.8,-71.1 -53.3,-95.3 z"
          id="path243"
          style="fill: url(#SVGID_9_)"
        />
        <path
          fill="url(#SVGID_12_)"
          d="m 422.7,436.9 c 12.8,19.6 45.6,39.3 68.6,38.5 12,-38.8 -51.5,-22.1 -68.6,-38.5 z"
          id="path278"
          style="fill: url(#SVGID_12_)"
        />
        <path
          fill="#934128"
          d="m 350.1,418.3 c 6.8,0.8 13.6,1.6 20.4,2.4 6.2,0.7 8.3,-8.9 2,-9.6 -6.8,-0.8 -13.6,-1.6 -20.4,-2.4 -6.2,-0.7 -8.3,8.9 -2,9.6 z"
          id="path280"
        />
        <path
          fill="#934128"
          d="m 349.3,423.1 c 6.8,0.8 13.6,1.6 20.4,2.4 6.2,0.7 8.3,-8.9 2,-9.6 -6.8,-0.8 -13.6,-1.6 -20.4,-2.4 -6.2,-0.7 -8.3,8.9 -2,9.6 z"
          id="path284"
          style="opacity: 0.27"
        />
        <path
          fill="#934128"
          d="m 384.9,393.8 c 5.9,-3.4 11.9,-6.7 17.8,-10.1 5.4,-3.1 1.5,-12.1 -4,-8.9 -5.9,3.4 -11.9,6.7 -17.8,10.1 -5.5,3.1 -1.5,12.1 4,8.9 z"
          id="path290"
        />
        <path
          fill="#934128"
          d="m 387.1,398.2 c 5.9,-3.4 11.9,-6.7 17.8,-10.1 5.4,-3.1 1.5,-12.1 -4,-8.9 -5.9,3.4 -11.9,6.7 -17.8,10.1 -5.5,3.1 -1.5,12 4,8.9 z"
          id="path294"
          style="opacity: 0.27"
        />
        <path
          fill="#934128"
          d="m 392.7,514.8 c 3.3,-6 6.6,-12 9.9,-18 3,-5.5 -5.1,-11.1 -8.1,-5.5 -3.3,6 -6.6,12 -9.9,18 -3.1,5.4 5,11 8.1,5.5 z"
          id="path300"
        />
        <path
          fill="#934128"
          d="m 396.8,517.3 c 3.3,-6 6.6,-12 9.9,-18 3,-5.5 -5.1,-11.1 -8.1,-5.5 -3.3,6 -6.6,12 -9.9,18 -3,5.5 5.1,11.1 8.1,5.5 z"
          id="path304"
          style="opacity: 0.27"
        />
        <path
          fill="#934128"
          d="m 444.8,455.9 c 6.6,-1.7 13.2,-3.4 19.9,-5.2 6.1,-1.6 4.6,-11.3 -1.6,-9.7 -6.6,1.7 -13.2,3.4 -19.9,5.2 -6,1.6 -4.5,11.3 1.6,9.7 z"
          id="path310"
        />
        <path
          fill="#934128"
          d="m 445.8,460.7 c 6.6,-1.7 13.2,-3.4 19.9,-5.2 6.1,-1.6 4.6,-11.3 -1.6,-9.7 -6.6,1.7 -13.2,3.4 -19.9,5.2 -6,1.6 -4.5,11.3 1.6,9.7 z"
          id="path314"
          style="opacity: 0.27"
        />
        <path
          fill="#934128"
          d="m 393.6,435.8 c 5.9,3.4 11.9,6.7 17.8,10.1 5.4,3.1 11.1,-4.9 5.6,-8 -5.9,-3.4 -11.9,-6.7 -17.8,-10.1 -5.4,-3.1 -11.1,4.9 -5.6,8 z"
          id="path320"
        />
        <path
          fill="#934128"
          d="m 391,440 c 5.9,3.4 11.9,6.7 17.8,10.1 5.4,3.1 11.1,-4.9 5.6,-8 -5.9,-3.4 -11.9,-6.7 -17.8,-10.1 -5.4,-3.2 -11.1,4.8 -5.6,8 z"
          id="path324"
          style="opacity: 0.27"
        />
        <path
          fill="#934128"
          d="m 335.8,550.7 c 5.9,3.4 11.9,6.7 17.8,10.1 5.4,3.1 11.1,-4.9 5.6,-8 -5.9,-3.4 -11.9,-6.7 -17.8,-10.1 -5.4,-3.1 -11.1,4.9 -5.6,8 z"
          id="path330"
        />
        <path
          fill="#934128"
          d="m 333.2,554.8 c 5.9,3.4 11.9,6.7 17.8,10.1 5.4,3.1 11.1,-4.9 5.6,-8 -5.9,-3.4 -11.9,-6.7 -17.8,-10.1 -5.4,-3.1 -11.1,4.9 -5.6,8 z"
          id="path334"
          style="opacity: 0.27"
        />
        <path
          fill="#934128"
          d="m 305.8,439.7 c 5.9,3.4 11.9,6.7 17.8,10.1 5.4,3.1 11.1,-4.9 5.6,-8 -5.9,-3.4 -11.9,-6.7 -17.8,-10.1 -5.4,-3.2 -11.1,4.9 -5.6,8 z"
          id="path340"
        />
        <path
          fill="#934128"
          d="m 303.2,443.8 c 5.9,3.4 11.9,6.7 17.8,10.1 5.4,3.1 11.1,-4.9 5.6,-8 -5.9,-3.4 -11.9,-6.7 -17.8,-10.1 -5.4,-3.1 -11.1,4.9 -5.6,8 z"
          id="path344"
          style="opacity: 0.27"
        />
        <path
          fill="#934128"
          d="m 228.5,473.1 c 6.6,-1.8 13.2,-3.7 19.8,-5.5 6,-1.7 4.4,-11.4 -1.7,-9.7 -6.6,1.8 -13.2,3.7 -19.8,5.5 -6,1.7 -4.4,11.4 1.7,9.7 z"
          id="path350"
        />
        <path
          fill="#934128"
          d="m 229.6,477.9 c 6.6,-1.8 13.2,-3.7 19.8,-5.5 6,-1.7 4.4,-11.4 -1.7,-9.7 -6.6,1.8 -13.2,3.7 -19.8,5.5 -6,1.7 -4.4,11.4 1.7,9.7 z"
          id="path354"
          style="opacity: 0.27"
        />
        <path
          fill="#934128"
          d="m 355.9,469.9 c 5.4,-4.1 10.9,-8.3 16.3,-12.4 5,-3.8 -0.1,-12.2 -5.2,-8.3 -5.4,4.1 -10.9,8.3 -16.3,12.4 -4.9,3.7 0.2,12.1 5.2,8.3 z"
          id="path360"
        />
        <path
          fill="#934128"
          d="m 358.7,473.9 c 5.4,-4.1 10.9,-8.3 16.3,-12.4 5,-3.8 -0.1,-12.2 -5.2,-8.3 -5.4,4.1 -10.9,8.3 -16.3,12.4 -5,3.7 0.1,12.1 5.2,8.3 z"
          id="path364"
          style="opacity: 0.27"
        />
        <path
          fill="#934128"
          d="m 423.9,412 c 6.8,0.2 13.7,0.4 20.5,0.7 6.3,0.2 7.6,-9.5 1.2,-9.7 -6.8,-0.2 -13.7,-0.4 -20.5,-0.7 -6.3,-0.2 -7.6,9.5 -1.2,9.7 z"
          id="path370"
        />
        <path
          fill="#934128"
          d="m 423.5,416.9 c 6.8,0.2 13.7,0.4 20.5,0.7 6.3,0.2 7.6,-9.5 1.2,-9.7 -6.8,-0.2 -13.7,-0.4 -20.5,-0.7 -6.2,-0.2 -7.6,9.5 -1.2,9.7 z"
          id="path374"
          style="opacity: 0.27"
        />
        <path
          fill="#934128"
          d="m 271.2,430.4 c -0.9,6.8 -1.8,13.6 -2.7,20.3 -0.8,6.2 8.7,8.5 9.6,2.2 0.9,-6.8 1.8,-13.6 2.7,-20.3 0.8,-6.2 -8.8,-8.4 -9.6,-2.2 z"
          id="path380"
        />
        <path
          fill="#934128"
          d="m 266.4,429.6 c -0.9,6.8 -1.8,13.6 -2.7,20.3 -0.8,6.2 8.7,8.5 9.6,2.2 0.9,-6.8 1.8,-13.6 2.7,-20.3 0.8,-6.2 -8.8,-8.5 -9.6,-2.2 z"
          id="path384"
          style="opacity: 0.27"
        />
        <path
          fill="#934128"
          d="m 297.6,394.5 c 6.8,0.1 13.7,0.3 20.5,0.4 6.3,0.1 7.4,-9.6 1.1,-9.7 -6.8,-0.1 -13.7,-0.3 -20.5,-0.4 -6.3,-0.2 -7.5,9.6 -1.1,9.7 z"
          id="path390"
        />
        <path
          fill="#934128"
          d="m 297.2,399.4 c 6.8,0.1 13.7,0.3 20.5,0.4 6.3,0.1 7.4,-9.6 1.1,-9.7 -6.8,-0.1 -13.7,-0.3 -20.5,-0.4 -6.2,-0.2 -7.4,9.6 -1.1,9.7 z"
          id="path394"
          style="opacity: 0.27"
        />
        <path
          fill="#934128"
          d="m 354.1,373.7 c 5.9,-3.4 11.9,-6.8 17.8,-10.1 5.4,-3.1 1.5,-12.1 -4,-8.9 -5.9,3.4 -11.9,6.8 -17.8,10.1 -5.4,3.1 -1.5,12.1 4,8.9 z"
          id="path400"
        />
        <path
          fill="#934128"
          d="m 356.3,378.1 c 5.9,-3.4 11.9,-6.8 17.8,-10.1 5.4,-3.1 1.5,-12.1 -4,-8.9 -5.9,3.4 -11.9,6.8 -17.8,10.1 -5.4,3 -1.5,12 4,8.9 z"
          id="path404"
          style="opacity: 0.27"
        />
      </g>
      <g id="g2599">
        <path
          fill="#8b431f"
          d="m 875.1,611.2 c -0.3,0.8 -0.6,1.7 -0.7,2.6 0.2,0.1 0.5,0.2 0.7,0.3 -0.1,-1.1 0,-2 0,-2.9 z"
          id="path45"
        />
        <path
          fill="#ce9f69"
          d="M 901,732.8 C 896.7,848.5 817.4,910.5 722.7,907 628,903.5 553.6,835.7 557.9,720 562.2,604.3 645,448.4 739.8,451.9 834.5,455.4 905.3,617.1 901,732.8 Z"
          id="path412"
        />
        <path
          fill="#dba775"
          d="m 814.7,489.7 c -26.2,42.6 -65.9,81.4 -104,99.5 -38.9,18.5 -89.5,43.7 -134.8,36 -10.5,32 -16.9,64.7 -18.1,94.7 -0.8,21.3 1.1,41 5.3,59 6,1.5 12.2,2.8 18.6,3.7 24.4,3.4 52.2,9.3 78,5.4 31.8,-4.8 38.1,-23.2 56.3,-45.1 33.8,-40.6 87.6,-59.4 123,-96.1 17.4,-18.1 25.5,-39.6 30.1,-62.9 0.4,-2.2 0.8,-4.6 1,-7 -14.4,-34 -33.3,-64.7 -55.4,-87.2 z"
          id="path414"
        />
        <path
          fill="#e2ae7a"
          d="m 710.7,589.2 c 38.1,-18.1 77.8,-56.9 104,-99.5 -22.2,-22.6 -47.6,-36.8 -75,-37.9 -70.2,-2.6 -133.8,82.2 -163.8,173.4 45.4,7.7 95.9,-17.4 134.8,-36 z"
          id="path416"
        />
        <path
          fill="#934128"
          d="m 649.4,536.8 c 6.6,-1.9 13.1,-3.9 19.7,-5.8 6,-1.8 4.2,-11.4 -1.9,-9.6 -6.6,1.9 -13.1,3.9 -19.7,5.8 -6,1.7 -4.2,11.4 1.9,9.6 z"
          id="path422"
        />
        <path
          fill="#934128"
          d="m 650.6,541.5 c 6.6,-1.9 13.1,-3.9 19.7,-5.8 6,-1.8 4.2,-11.4 -1.9,-9.6 -6.6,1.9 -13.1,3.9 -19.7,5.8 -6,1.8 -4.2,11.4 1.9,9.6 z"
          id="path426"
          style="opacity: 0.27"
        />
        <path
          fill="#934128"
          d="m 744.4,484.2 c 6.4,2.3 12.9,4.6 19.3,6.8 5.9,2.1 10.1,-6.8 4.1,-8.9 -6.4,-2.3 -12.9,-4.6 -19.3,-6.8 -5.9,-2.1 -10.1,6.8 -4.1,8.9 z"
          id="path432"
        />
        <path
          fill="#934128"
          d="m 742.6,488.7 c 6.4,2.3 12.9,4.6 19.3,6.8 5.9,2.1 10.1,-6.8 4.1,-8.9 -6.4,-2.3 -12.9,-4.6 -19.3,-6.8 -5.9,-2.1 -10.1,6.8 -4.1,8.9 z"
          id="path436"
          style="opacity: 0.27"
        />
        <path
          fill="#934128"
          d="m 782,534.2 c 6.4,2.3 12.9,4.6 19.3,6.8 5.9,2.1 10.1,-6.8 4.1,-8.9 -6.4,-2.3 -12.9,-4.6 -19.3,-6.8 -5.9,-2.1 -10.1,6.8 -4.1,8.9 z"
          id="path442"
        />
        <path
          fill="#934128"
          d="m 780.2,538.7 c 6.4,2.3 12.9,4.6 19.3,6.8 5.9,2.1 10.1,-6.8 4.1,-8.9 -6.4,-2.3 -12.9,-4.6 -19.3,-6.8 -5.9,-2.1 -10.1,6.8 -4.1,8.9 z"
          id="path446"
          style="opacity: 0.27"
        />
        <path
          fill="#934128"
          d="m 713.9,514 c 6.7,-1.3 13.4,-2.5 20.2,-3.8 6.2,-1.1 5.3,-10.9 -0.9,-9.8 -6.7,1.3 -13.4,2.5 -20.2,3.8 -6.1,1.2 -5.3,11 0.9,9.8 z"
          id="path452"
        />
        <path
          fill="#934128"
          d="m 714.6,518.9 c 6.7,-1.3 13.4,-2.5 20.2,-3.8 6.2,-1.2 5.3,-10.9 -0.9,-9.8 -6.7,1.3 -13.4,2.5 -20.2,3.8 -6.1,1.1 -5.3,10.9 0.9,9.8 z"
          id="path456"
          style="opacity: 0.27"
        />
        <path
          fill="#934128"
          d="m 691.2,488.4 c 6,-3.2 12.1,-6.4 18.1,-9.6 5.5,-2.9 1.8,-12 -3.8,-9.1 -6,3.2 -12.1,6.4 -18.1,9.6 -5.5,3 -1.8,12.1 3.8,9.1 z"
          id="path462"
        />
        <path
          fill="#934128"
          d="m 693.3,492.9 c 6,-3.2 12.1,-6.4 18.1,-9.6 5.5,-2.9 1.8,-12 -3.8,-9.1 -6,3.2 -12.1,6.4 -18.1,9.6 -5.5,2.9 -1.8,12 3.8,9.1 z"
          id="path466"
          style="opacity: 0.27"
        />
        <path
          fill="#934128"
          d="m 725.8,458.5 c 6.8,0.9 13.6,1.8 20.3,2.8 6.2,0.8 8.5,-8.7 2.2,-9.6 -6.8,-0.9 -13.6,-1.8 -20.3,-2.8 -6.2,-0.8 -8.5,8.7 -2.2,9.6 z"
          id="path472"
        />
        <path
          fill="#934128"
          d="m 724.9,463.3 c 6.8,0.9 13.6,1.8 20.3,2.8 6.2,0.8 8.5,-8.7 2.2,-9.6 -6.8,-0.9 -13.6,-1.8 -20.3,-2.8 -6.2,-0.8 -8.5,8.8 -2.2,9.6 z"
          id="path476"
          style="opacity: 0.27"
        />
        <path
          fill="#934128"
          d="m 790.5,477 c 4.8,4.9 9.6,9.7 14.4,14.6 4.4,4.5 12,-1.7 7.6,-6.2 -4.8,-4.9 -9.6,-9.7 -14.4,-14.6 -4.4,-4.5 -12.1,1.7 -7.6,6.2 z"
          id="path482"
        />
        <path
          fill="#934128"
          d="m 786.8,480.3 c 4.8,4.9 9.6,9.7 14.4,14.6 4.4,4.5 12,-1.7 7.6,-6.2 -4.8,-4.9 -9.6,-9.7 -14.4,-14.6 -4.4,-4.5 -12,1.6 -7.6,6.2 z"
          id="path486"
          style="opacity: 0.27"
        />
        <path
          fill="#934128"
          d="m 846.2,539.7 c 2.5,6.4 5,12.7 7.5,19.1 2.3,5.8 11.7,3.2 9.4,-2.7 -2.5,-6.4 -5,-12.7 -7.5,-19.1 -2.3,-5.8 -11.7,-3.2 -9.4,2.7 z"
          id="path492"
        />
        <path
          fill="#934128"
          d="m 841.5,541.3 c 2.5,6.4 5,12.7 7.5,19.1 2.3,5.8 11.7,3.2 9.4,-2.7 -2.5,-6.4 -5,-12.7 -7.5,-19.1 -2.2,-5.9 -11.7,-3.2 -9.4,2.7 z"
          id="path496"
          style="opacity: 0.27"
        />
        <path
          fill="#934128"
          d="m 644.8,503.7 c 6.1,-3 12.3,-6.1 18.4,-9.1 5.6,-2.8 2.2,-12 -3.5,-9.2 -6.1,3 -12.3,6.1 -18.4,9.1 -5.6,2.8 -2.2,12 3.5,9.2 z"
          id="path502"
        />
        <path
          fill="#934128"
          d="m 646.8,508.2 c 6.1,-3 12.3,-6.1 18.4,-9.1 5.6,-2.8 2.2,-12 -3.5,-9.2 -6.1,3 -12.3,6.1 -18.4,9.1 -5.6,2.8 -2.2,12 3.5,9.2 z"
          id="path506"
          style="opacity: 0.27"
        />
        <path
          fill="#934128"
          d="m 606.5,569.6 c 6.8,0.8 13.6,1.6 20.4,2.4 6.2,0.7 8.3,-8.9 2,-9.6 -6.8,-0.8 -13.6,-1.6 -20.4,-2.4 -6.2,-0.8 -8.3,8.8 -2,9.6 z"
          id="path512"
        />
        <path
          fill="#934128"
          d="m 605.7,574.4 c 6.8,0.8 13.6,1.6 20.4,2.4 6.2,0.7 8.3,-8.9 2,-9.6 -6.8,-0.8 -13.6,-1.6 -20.4,-2.4 -6.2,-0.7 -8.3,8.9 -2,9.6 z"
          id="path516"
          style="opacity: 0.27"
        />
        <path
          fill="#934128"
          d="m 734.5,554 c 6.8,0.8 13.6,1.6 20.4,2.4 6.2,0.7 8.3,-8.9 2,-9.6 -6.8,-0.8 -13.6,-1.6 -20.4,-2.4 -6.2,-0.7 -8.3,8.8 -2,9.6 z"
          id="path522"
        />
        <path
          fill="#934128"
          d="m 733.7,558.8 c 6.8,0.8 13.6,1.6 20.4,2.4 6.2,0.7 8.3,-8.9 2,-9.6 -6.8,-0.8 -13.6,-1.6 -20.4,-2.4 -6.2,-0.7 -8.3,8.9 -2,9.6 z"
          id="path526"
          style="opacity: 0.27"
        />
        <path
          fill="#934128"
          d="m 817.6,591.5 c 5.5,4 11.1,8 16.6,12 5.1,3.7 11.6,-3.7 6.5,-7.4 -5.5,-4 -11.1,-8 -16.6,-12 -5.1,-3.6 -11.6,3.7 -6.5,7.4 z"
          id="path532"
        />
        <path
          fill="#934128"
          d="m 814.6,595.4 c 5.5,4 11.1,8 16.6,12 5.1,3.7 11.6,-3.7 6.5,-7.4 -5.5,-4 -11.1,-8 -16.6,-12 -5.2,-3.7 -11.7,3.7 -6.5,7.4 z"
          id="path536"
          style="opacity: 0.27"
        />
        <path
          fill="#934128"
          d="m 688.7,567.3 c 5.9,-3.5 11.8,-7 17.6,-10.5 5.4,-3.2 1.3,-12.1 -4.2,-8.9 -5.9,3.5 -11.8,7 -17.6,10.5 -5.4,3.2 -1.2,12.1 4.2,8.9 z"
          id="path542"
        />
        <path
          fill="#934128"
          d="m 691,571.6 c 5.9,-3.5 11.8,-7 17.6,-10.5 5.4,-3.2 1.3,-12.1 -4.2,-8.9 -5.9,3.5 -11.8,7 -17.6,10.5 -5.4,3.3 -1.2,12.2 4.2,8.9 z"
          id="path546"
          style="opacity: 0.27"
        />
        <path
          fill="#934128"
          d="m 815.3,568.9 c 6.5,-2 13.1,-4.1 19.6,-6.1 6,-1.9 4,-11.5 -2,-9.6 -6.5,2 -13.1,4.1 -19.6,6.1 -6.1,1.9 -4.1,11.5 2,9.6 z"
          id="path552"
        />
        <path
          fill="#934128"
          d="m 816.5,573.6 c 6.5,-2 13.1,-4.1 19.6,-6.1 6,-1.9 4,-11.5 -2,-9.6 -6.5,2 -13.1,4.1 -19.6,6.1 -6,1.9 -4,11.5 2,9.6 z"
          id="path556"
          style="opacity: 0.27"
        />
        <path
          fill="#934128"
          d="m 722.6,601.9 c 6,-3.2 12.1,-6.4 18.1,-9.6 5.5,-2.9 1.8,-12 -3.8,-9.1 -6,3.2 -12.1,6.4 -18.1,9.6 -5.4,3 -1.8,12.1 3.8,9.1 z"
          id="path562"
        />
        <path
          fill="#934128"
          d="m 724.7,606.3 c 6,-3.2 12.1,-6.4 18.1,-9.6 5.5,-2.9 1.8,-12 -3.8,-9.1 -6,3.2 -12.1,6.4 -18.1,9.6 -5.5,3 -1.8,12.1 3.8,9.1 z"
          id="path566"
          style="opacity: 0.27"
        />
        <path
          fill="#934128"
          d="m 668.9,628.3 c 6.8,0.3 13.7,0.5 20.5,0.8 6.3,0.2 7.6,-9.5 1.3,-9.7 -6.8,-0.3 -13.7,-0.5 -20.5,-0.8 -6.3,-0.2 -7.7,9.5 -1.3,9.7 z"
          id="path572"
        />
        <path
          fill="#934128"
          d="m 668.5,633.2 c 6.8,0.3 13.7,0.5 20.5,0.8 6.3,0.2 7.6,-9.5 1.3,-9.7 -6.8,-0.3 -13.7,-0.5 -20.5,-0.8 -6.3,-0.3 -7.7,9.5 -1.3,9.7 z"
          id="path576"
          style="opacity: 0.27"
        />
        <path
          fill="#934128"
          d="m 853.5,633.9 c 6.2,-2.9 12.4,-5.7 18.6,-8.6 5.7,-2.6 2.5,-11.9 -3.3,-9.3 -6.2,2.9 -12.4,5.7 -18.6,8.6 -5.6,2.7 -2.5,12 3.3,9.3 z"
          id="path582"
        />
        <path
          fill="#934128"
          d="m 855.3,638.5 c 6.2,-2.9 12.4,-5.7 18.6,-8.6 5.7,-2.6 2.5,-11.9 -3.3,-9.3 -6.2,2.9 -12.4,5.7 -18.6,8.6 -5.6,2.6 -2.4,11.9 3.3,9.3 z"
          id="path586"
          style="opacity: 0.27"
        />
        <path
          fill="#934128"
          d="m 617.9,623.8 c 3,-6.1 6,-12.3 9,-18.4 2.8,-5.6 -5.6,-10.8 -8.4,-5.1 -3,6.1 -6,12.3 -9,18.4 -2.7,5.6 5.6,10.7 8.4,5.1 z"
          id="path592"
        />
        <path
          fill="#934128"
          d="m 622.2,626.1 c 3,-6.1 6,-12.3 9,-18.4 2.8,-5.6 -5.6,-10.8 -8.4,-5.1 -3,6.1 -6,12.3 -9,18.4 -2.7,5.6 5.6,10.8 8.4,5.1 z"
          id="path596"
          style="opacity: 0.27"
        />
        <path
          fill="#934128"
          d="m 775.2,605.4 c 6.5,2 13,4.1 19.6,6.1 6,1.9 9.8,-7.1 3.8,-9 -6.5,-2 -13,-4.1 -19.6,-6.1 -5.9,-1.9 -9.8,7.1 -3.8,9 z"
          id="path602"
        />
        <path
          fill="#934128"
          d="m 773.5,610 c 6.5,2 13,4.1 19.6,6.1 6,1.9 9.8,-7.1 3.8,-9 -6.5,-2 -13,-4.1 -19.6,-6.1 -5.9,-1.9 -9.8,7.1 -3.8,9 z"
          id="path606"
          style="opacity: 0.27"
        />
        <ellipse
          transform="rotate(-2.5307592)"
          opacity="0.32"
          fill="#934128"
          cx="637.14923"
          cy="610.51532"
          rx="12.099702"
          ry="13.099677"
          id="ellipse612"
          style="stroke-width: 0.999975"
        />
        <ellipse
          transform="rotate(-2.5309687)"
          fill="#f2556c"
          cx="638.1886"
          cy="607.258"
          rx="9.7997599"
          ry="10.59974"
          id="ellipse614"
          style="stroke-width: 0.999976"
        />
        <ellipse
          transform="rotate(-2.5310054)"
          opacity="0.32"
          fill="#934128"
          cx="734.28027"
          cy="552.95026"
          rx="12.099704"
          ry="13.09968"
          id="ellipse618"
          style="stroke-width: 0.999976"
        />
        <ellipse
          transform="rotate(-2.5306774)"
          fill="#f2556c"
          cx="735.22461"
          cy="549.78625"
          rx="9.799758"
          ry="10.599738"
          id="ellipse620"
          style="stroke-width: 0.999975"
        />
        <ellipse
          transform="rotate(-2.5307592)"
          opacity="0.32"
          fill="#934128"
          cx="782.23468"
          cy="548.26013"
          rx="12.099702"
          ry="13.099677"
          id="ellipse624"
          style="stroke-width: 0.999975"
        />
        <ellipse
          transform="rotate(-2.5309687)"
          fill="#f2556c"
          cx="783.17419"
          cy="545.10339"
          rx="9.7997599"
          ry="10.59974"
          id="ellipse626"
          style="stroke-width: 0.999976"
        />
        <ellipse
          transform="rotate(-2.5310798)"
          opacity="0.32"
          fill="#934128"
          cx="703.42358"
          cy="512.7525"
          rx="9.6997623"
          ry="10.499743"
          id="ellipse630"
          style="stroke-width: 0.999976"
        />
        <ellipse
          transform="rotate(-2.5307976)"
          fill="#f2556c"
          cx="704.23895"
          cy="510.18112"
          rx="7.799808"
          ry="8.4997902"
          id="ellipse632"
          style="stroke-width: 0.999975"
        />
        <ellipse
          transform="rotate(-2.530785)"
          opacity="0.32"
          fill="#934128"
          cx="667.7926"
          cy="539.89972"
          rx="9.6997604"
          ry="10.499741"
          id="ellipse636"
          style="stroke-width: 0.999975"
        />
        <ellipse
          transform="rotate(-2.5307976)"
          fill="#f2556c"
          cx="668.50568"
          cy="537.43207"
          rx="7.799808"
          ry="8.4997902"
          id="ellipse638"
          style="stroke-width: 0.999975"
        />
        <ellipse
          transform="rotate(-2.5307976)"
          opacity="0.32"
          fill="#934128"
          cx="603.20343"
          cy="572.27954"
          rx="9.6997604"
          ry="10.499742"
          id="ellipse642"
          style="stroke-width: 0.999975"
        />
        <ellipse
          transform="rotate(-2.5307976)"
          fill="#f2556c"
          cx="604.01654"
          cy="569.71173"
          rx="7.799808"
          ry="8.4997902"
          id="ellipse644"
          style="stroke-width: 0.999975"
        />
        <ellipse
          transform="rotate(-2.530785)"
          opacity="0.32"
          fill="#934128"
          cx="754.79919"
          cy="605.10638"
          rx="9.6997604"
          ry="10.499741"
          id="ellipse648"
          style="stroke-width: 0.999975"
        />
        <ellipse
          transform="rotate(-2.5307976)"
          fill="#f2556c"
          cx="755.61218"
          cy="602.53882"
          rx="7.799808"
          ry="8.4997902"
          id="ellipse650"
          style="stroke-width: 0.999975"
        />
        <ellipse
          transform="rotate(-2.5310929)"
          opacity="0.32"
          fill="#934128"
          cx="747.0307"
          cy="674.33307"
          rx="9.6997633"
          ry="10.499743"
          id="ellipse654"
          style="stroke-width: 0.999976"
        />
        <ellipse
          transform="rotate(-2.5311611)"
          fill="#f2556c"
          cx="747.84302"
          cy="671.76617"
          rx="7.7998099"
          ry="8.4997931"
          id="ellipse656"
          style="stroke-width: 0.999976"
        />
        <ellipse
          transform="rotate(-2.5310798)"
          opacity="0.32"
          fill="#934128"
          cx="571.95917"
          cy="626.85583"
          rx="9.6997623"
          ry="10.499743"
          id="ellipse660"
          style="stroke-width: 0.999976"
        />
        <ellipse
          transform="rotate(-2.5311588)"
          fill="#f2556c"
          cx="572.77155"
          cy="624.38885"
          rx="7.7998099"
          ry="8.4997931"
          id="ellipse662"
          style="stroke-width: 0.999976"
        />
        <ellipse
          transform="rotate(-2.5307976)"
          opacity="0.32"
          fill="#934128"
          cx="828.50104"
          cy="624.77747"
          rx="9.6997604"
          ry="10.499742"
          id="ellipse666"
          style="stroke-width: 0.999975"
        />
        <ellipse
          transform="rotate(-2.5307976)"
          fill="#f2556c"
          cx="829.21423"
          cy="622.20978"
          rx="7.799808"
          ry="8.4997902"
          id="ellipse668"
          style="stroke-width: 0.999975"
        />
      </g>
      <g id="g2647">
        <path
          fill="none"
          d="m 40,668.9 c -0.8,2.8 -1.7,5.7 -2.7,8.4 0.4,0.1 0.8,0.2 1.2,0.3 0.4,-2.8 0.9,-5.7 1.5,-8.7 z"
          id="path85"
        />
        <path
          fill="#ffeacf"
          d="m 64.9,788.1 c 0.9,-2.4 -3.7,-6.1 -10.4,-8.1 -6.7,-2.1 -12.9,-1.8 -13.8,0.6 -0.9,2.4 3.7,6.1 10.4,8.1 6.7,2.1 12.8,1.8 13.8,-0.6 z"
          id="path97"
        />
        <path
          fill="#ffeacf"
          d="m 55.3,758.2 c -2.2,-1.3 -7.3,2.3 -11.2,8.1 -4,5.8 -5.4,11.5 -3.2,12.9 2.2,1.3 7.3,-2.3 11.2,-8.1 4,-5.9 5.5,-11.6 3.2,-12.9 z"
          id="path99"
        />
        <path
          fill="#934128"
          d="M 388.6,747.2 C 398.1,864.9 325.3,937.2 229,945 132.6,952.8 49.1,893.1 39.6,775.4 30.1,657.7 95.1,489.9 191.5,482.1 c 96.4,-7.8 187.6,147.4 197.1,265.1 z"
          id="path674"
        />
        <path
          fill="#a84d38"
          d="m 144.8,631.2 c 48.8,-28.6 87.3,-79.8 106.3,-134.1 -19.2,-11 -39.3,-16.6 -59.6,-14.9 -72.6,5.9 -127.4,102.5 -146,200.1 4.2,-1.2 8.4,-2.6 12.7,-4.1 31.5,-11 58.2,-30.4 86.6,-47 z"
          id="path678"
        />
        <path
          fill="#9e4632"
          d="m 284.1,522 c -10.6,-10 -21.7,-18.4 -33.1,-24.9 -19,54.3 -57.5,105.5 -106.3,134.1 -28.4,16.7 -55.1,36 -86.5,47 -4.3,1.5 -8.5,2.9 -12.7,4.1 -6.1,32 -8.3,64.1 -5.9,93.2 2.4,30.2 9.8,56.5 20.9,78.9 21.3,-1.1 43.9,-10.3 62,-16.2 23.5,-7.7 50.6,-13.3 72.7,-23.6 40.3,-18.8 58.6,-44.7 67.9,-86 7.8,-34.4 31,-58.4 41,-91.6 11,-36.4 -2.5,-80.3 -20,-115 z"
          id="path680"
        />
        <circle
          opacity="0.4"
          fill="#843826"
          cx="121.9"
          cy="689.29999"
          r="12.3"
          id="circle684"
        />
        <circle
          fill="#f7cc81"
          cx="122.6"
          cy="686.20001"
          r="10"
          id="circle686"
        />
        <ellipse
          transform="rotate(-6.7654033)"
          opacity="0.64"
          fill="#843826"
          cx="45.043755"
          cy="608.22241"
          rx="12.299544"
          ry="12.199548"
          id="ellipse690"
          style="stroke-width: 0.999963"
        />
        <ellipse
          transform="rotate(-6.7654033)"
          fill="#f7cc81"
          cx="46.000587"
          cy="605.21948"
          rx="9.999629"
          ry="9.8996325"
          id="ellipse692"
          style="stroke-width: 0.999963"
        />
        <ellipse
          transform="rotate(-6.7654033)"
          opacity="0.64"
          fill="#843826"
          cx="188.53973"
          cy="744.87732"
          rx="12.299544"
          ry="12.199548"
          id="ellipse696"
          style="stroke-width: 0.999963"
        />
        <ellipse
          transform="rotate(-6.7654033)"
          fill="#f7cc81"
          cx="189.49681"
          cy="741.87421"
          rx="9.999629"
          ry="9.8996325"
          id="ellipse698"
          style="stroke-width: 0.999963"
        />
        <ellipse
          transform="rotate(-6.7654033)"
          opacity="0.64"
          fill="#843826"
          cx="195.97"
          cy="614.35559"
          rx="12.299544"
          ry="12.199548"
          id="ellipse702"
          style="stroke-width: 0.999963"
        />
        <ellipse
          transform="rotate(-6.7654033)"
          fill="#f7cc81"
          cx="197.02434"
          cy="611.35358"
          rx="9.999629"
          ry="9.8996325"
          id="ellipse704"
          style="stroke-width: 0.999963"
        />
        <ellipse
          transform="rotate(-6.7654033)"
          opacity="0.64"
          fill="#843826"
          cx="141.53377"
          cy="533.37378"
          rx="12.299544"
          ry="12.199548"
          id="ellipse708"
          style="stroke-width: 0.999963"
        />
        <ellipse
          transform="rotate(-6.7654033)"
          fill="#f7cc81"
          cx="142.49074"
          cy="530.37061"
          rx="9.999629"
          ry="9.8996325"
          id="ellipse710"
          style="stroke-width: 0.999963"
        />
        <ellipse
          transform="rotate(-6.7654033)"
          opacity="0.64"
          fill="#843826"
          cx="128.50722"
          cy="632.9317"
          rx="12.299544"
          ry="12.199548"
          id="ellipse714"
          style="stroke-width: 0.999963"
        />
        <ellipse
          transform="rotate(-6.7654033)"
          fill="#f7cc81"
          cx="129.55862"
          cy="630.0304"
          rx="9.999629"
          ry="9.8996325"
          id="ellipse716"
          style="stroke-width: 0.999963"
        />
        <ellipse
          transform="rotate(-6.7654033)"
          opacity="0.64"
          fill="#843826"
          cx="68.497742"
          cy="537.80365"
          rx="12.299544"
          ry="12.199548"
          id="ellipse720"
          style="stroke-width: 0.999963"
        />
        <ellipse
          transform="rotate(-6.7654033)"
          fill="#f7cc81"
          cx="69.554497"
          cy="534.90063"
          rx="9.999629"
          ry="9.8996325"
          id="ellipse722"
          style="stroke-width: 0.999963"
        />
        <ellipse
          transform="rotate(-6.7654033)"
          opacity="0.64"
          fill="#843826"
          cx="209.50047"
          cy="558.86261"
          rx="12.299544"
          ry="12.199548"
          id="ellipse726"
          style="stroke-width: 0.999963"
        />
        <ellipse
          transform="rotate(-6.7654033)"
          fill="#f7cc81"
          cx="210.55714"
          cy="555.85944"
          rx="9.999629"
          ry="9.8996325"
          id="ellipse728"
          style="stroke-width: 0.999963"
        />
        <ellipse
          transform="rotate(-6.7654033)"
          opacity="0.64"
          fill="#843826"
          cx="260.54074"
          cy="680.3125"
          rx="12.299544"
          ry="12.199548"
          id="ellipse732"
          style="stroke-width: 0.999963"
        />
        <ellipse
          transform="rotate(-6.7654033)"
          fill="#f7cc81"
          cx="261.49545"
          cy="677.41046"
          rx="9.999629"
          ry="9.8996325"
          id="ellipse734"
          style="stroke-width: 0.999963"
        />
        <ellipse
          transform="rotate(-6.7654033)"
          opacity="0.64"
          fill="#843826"
          cx="-6.470624"
          cy="664.74609"
          rx="12.299544"
          ry="12.199548"
          id="ellipse738"
          style="stroke-width: 0.999963"
        />
        <ellipse
          transform="rotate(-6.7654033)"
          fill="#f7cc81"
          cx="-5.5133944"
          cy="661.74323"
          rx="9.999629"
          ry="9.8996325"
          id="ellipse740"
          style="stroke-width: 0.999963"
        />
        <ellipse
          transform="rotate(-6.7654033)"
          opacity="0.64"
          fill="#843826"
          cx="117.06178"
          cy="578.29889"
          rx="12.299544"
          ry="12.199548"
          id="ellipse744"
          style="stroke-width: 0.999963"
        />
        <ellipse
          transform="rotate(-6.7654033)"
          fill="#f7cc81"
          cx="118.01886"
          cy="575.39569"
          rx="9.999629"
          ry="9.8996325"
          id="ellipse746"
          style="stroke-width: 0.999963"
        />
        <ellipse
          transform="rotate(-6.7654033)"
          opacity="0.64"
          fill="#843826"
          cx="128.56525"
          cy="708.8584"
          rx="12.299544"
          ry="12.199548"
          id="ellipse750"
          style="stroke-width: 0.999963"
        />
        <ellipse
          transform="rotate(-6.7654033)"
          fill="#f7cc81"
          cx="129.5222"
          cy="705.85535"
          rx="9.999629"
          ry="9.8996325"
          id="ellipse752"
          style="stroke-width: 0.999963"
        />
        <ellipse
          transform="rotate(-6.7654033)"
          opacity="0.64"
          fill="#843826"
          cx="-30.469181"
          cy="758.36725"
          rx="12.299544"
          ry="12.199548"
          id="ellipse756"
          style="stroke-width: 0.999963"
        />
        <ellipse
          transform="rotate(-6.7654033)"
          fill="#f7cc81"
          cx="-29.512157"
          cy="755.3645"
          rx="9.999629"
          ry="9.8996325"
          id="ellipse758"
          style="stroke-width: 0.999963"
        />
        <ellipse
          transform="rotate(-6.7654033)"
          opacity="0.64"
          fill="#843826"
          cx="98.543999"
          cy="785.35382"
          rx="12.299544"
          ry="12.199548"
          id="ellipse762"
          style="stroke-width: 0.999963"
        />
        <ellipse
          transform="rotate(-6.7654033)"
          fill="#f7cc81"
          cx="99.50116"
          cy="782.35083"
          rx="9.999629"
          ry="9.8996325"
          id="ellipse764"
          style="stroke-width: 0.999963"
        />
        <ellipse
          transform="rotate(-6.7654033)"
          opacity="0.64"
          fill="#843826"
          cx="206.51337"
          cy="683.37079"
          rx="12.299544"
          ry="12.199548"
          id="ellipse768"
          style="stroke-width: 0.999963"
        />
        <ellipse
          transform="rotate(-6.7654033)"
          fill="#f7cc81"
          cx="207.4677"
          cy="680.36877"
          rx="9.999629"
          ry="9.8996325"
          id="ellipse770"
          style="stroke-width: 0.999963"
        />
        <ellipse
          transform="rotate(-6.7654033)"
          opacity="0.64"
          fill="#843826"
          cx="272.49023"
          cy="774.78113"
          rx="12.299544"
          ry="12.199548"
          id="ellipse774"
          style="stroke-width: 0.999963"
        />
        <ellipse
          transform="rotate(-6.7654033)"
          fill="#f7cc81"
          cx="273.54434"
          cy="771.87927"
          rx="9.999629"
          ry="9.8996325"
          id="ellipse776"
          style="stroke-width: 0.999963"
        />
        <ellipse
          transform="rotate(-6.7654033)"
          opacity="0.64"
          fill="#843826"
          cx="226.38536"
          cy="827.30975"
          rx="12.299544"
          ry="12.199548"
          id="ellipse780"
          style="stroke-width: 0.999963"
        />
        <ellipse
          transform="rotate(-6.7654033)"
          fill="#f7cc81"
          cx="227.34288"
          cy="824.30634"
          rx="9.999629"
          ry="9.8996325"
          id="ellipse782"
          style="stroke-width: 0.999963"
        />
        <ellipse
          transform="rotate(-6.7654033)"
          opacity="0.64"
          fill="#843826"
          cx="2.3331144"
          cy="827.31543"
          rx="12.299544"
          ry="12.199548"
          id="ellipse786"
          style="stroke-width: 0.999963"
        />
        <ellipse
          transform="rotate(-6.7654033)"
          fill="#f7cc81"
          cx="3.3903387"
          cy="824.31262"
          rx="9.999629"
          ry="9.8996325"
          id="ellipse788"
          style="stroke-width: 0.999963"
        />
        <ellipse
          transform="rotate(-6.7654033)"
          opacity="0.64"
          fill="#843826"
          cx="46.337357"
          cy="799.30597"
          rx="12.299544"
          ry="12.199548"
          id="ellipse792"
          style="stroke-width: 0.999963"
        />
        <ellipse
          transform="rotate(-6.7654033)"
          fill="#f7cc81"
          cx="47.394505"
          cy="796.30298"
          rx="9.999629"
          ry="9.8996325"
          id="ellipse794"
          style="stroke-width: 0.999963"
        />
        <ellipse
          transform="rotate(-6.7654033)"
          opacity="0.64"
          fill="#843826"
          cx="150.32918"
          cy="795.33276"
          rx="12.299544"
          ry="12.199548"
          id="ellipse798"
          style="stroke-width: 0.999963"
        />
        <ellipse
          transform="rotate(-6.7654033)"
          fill="#f7cc81"
          cx="151.38666"
          cy="792.32947"
          rx="9.999629"
          ry="9.8996325"
          id="ellipse800"
          style="stroke-width: 0.999963"
        />
      </g>
      <g id="g2535">
        <path
          fill="#753020"
          d="m 666.4,742.2 -16,-52 -16,-56 -36,-20 -40,-68 -15.7,-33.6 c -2.8,0.7 -5.6,1.4 -8.4,2.4 l -19.9,47.2 40,20 32,64 48,64 20,72 60,-8 16.6,13.5 c 0.1,-9.9 -0.4,-20.2 -1.4,-30.6 l -11.2,-6.9 z"
          id="path806"
        />
        <ellipse
          fill="#f2556c"
          cx="662.40002"
          cy="754.20001"
          rx="34"
          ry="20"
          id="ellipse808"
        />
        <ellipse
          transform="rotate(37.266402)"
          fill="#569fef"
          cx="1046.8589"
          cy="176.25285"
          rx="33.998775"
          ry="19.999279"
          id="ellipse810"
          style="stroke-width: 0.999964"
        />
        <ellipse
          transform="rotate(37.266402)"
          fill="#f2d525"
          cx="873.85718"
          cy="147.05388"
          rx="33.998775"
          ry="19.999279"
          id="ellipse812"
          style="stroke-width: 0.999964"
        />
        <ellipse
          transform="rotate(37.266402)"
          fill="#f2d525"
          cx="1196.1951"
          cy="253.61588"
          rx="33.998775"
          ry="19.999279"
          id="ellipse814"
          style="stroke-width: 0.999964"
        />
        <ellipse
          transform="rotate(35.476405)"
          fill="#f2d525"
          cx="1014.8839"
          cy="193.09723"
          rx="34.001896"
          ry="20.001116"
          id="ellipse816"
          style="stroke-width: 1.00006"
        />
        <ellipse
          transform="rotate(35.476405)"
          fill="#f2d525"
          cx="1117.5537"
          cy="282.02762"
          rx="34.001896"
          ry="20.001116"
          id="ellipse818"
          style="stroke-width: 1.00006"
        />
        <ellipse
          transform="rotate(-8.1689942)"
          fill="#ef2626"
          cx="525.97443"
          cy="772.79083"
          rx="34.001606"
          ry="20.000944"
          id="ellipse820"
          style="stroke-width: 1.00005"
        />
        <ellipse
          transform="rotate(4.6631622)"
          fill="#26bc62"
          cx="713.31372"
          cy="667.22156"
          rx="34.000347"
          ry="20.000204"
          id="ellipse822"
          style="stroke-width: 1.00001"
        />
        <ellipse
          fill="#f2556c"
          cx="786.40002"
          cy="886.20001"
          rx="34"
          ry="20"
          id="ellipse824"
        />
        <ellipse
          transform="rotate(-1.4668898)"
          fill="#f2556c"
          cx="805.87354"
          cy="891.14575"
          rx="34.000942"
          ry="20.000555"
          id="ellipse826"
          style="stroke-width: 1.00003"
        />
        <ellipse
          transform="rotate(37.266402)"
          fill="#569fef"
          cx="1225.4659"
          cy="206.213"
          rx="33.998775"
          ry="19.999279"
          id="ellipse828"
          style="stroke-width: 0.999964"
        />
        <ellipse
          transform="rotate(-2.8114741)"
          fill="#569fef"
          cx="739.0451"
          cy="983.63745"
          rx="34.000126"
          ry="20.000072"
          id="ellipse830"
          style="stroke-width: 1"
        />
        <ellipse
          transform="rotate(-2.8114741)"
          fill="#569fef"
          cx="862.2887"
          cy="981.68103"
          rx="34.000126"
          ry="20.000072"
          id="ellipse832"
          style="stroke-width: 1"
        />
        <ellipse
          transform="rotate(-8.1689942)"
          fill="#ef2626"
          cx="629.96881"
          cy="921.0744"
          rx="34.001606"
          ry="20.000944"
          id="ellipse834"
          style="stroke-width: 1.00005"
        />
        <ellipse
          transform="rotate(-8.1689942)"
          fill="#ef2626"
          cx="708.5191"
          cy="1049.5416"
          rx="34.001606"
          ry="20.000944"
          id="ellipse836"
          style="stroke-width: 1.00005"
        />
        <ellipse
          transform="rotate(-8.1689942)"
          fill="#ef2626"
          cx="689.91278"
          cy="953.92456"
          rx="34.001606"
          ry="20.000944"
          id="ellipse838"
          style="stroke-width: 1.00005"
        />
        <ellipse
          transform="rotate(4.6631622)"
          fill="#26bc62"
          cx="847.63586"
          cy="788.70496"
          rx="34.000347"
          ry="20.000204"
          id="ellipse840"
          style="stroke-width: 1.00001"
        />
        <ellipse
          transform="rotate(-17.715641)"
          fill="#26bc62"
          cx="425.19427"
          cy="1095.574"
          rx="34.000771"
          ry="20.000452"
          id="ellipse842"
          style="stroke-width: 1.00002"
        />
        <ellipse
          transform="rotate(4.663072)"
          fill="#26bc62"
          cx="618.12476"
          cy="561.81458"
          rx="34.000343"
          ry="20.0002"
          id="ellipse844"
          style="stroke-width: 1.00001"
        />
        <path
          fill="#cc6854"
          d="m 654.4,782.2 -20,-72 -48,-64 -32,-64 -40,-20 19.9,-47.3 C 451.8,542 384.9,678.8 380.9,783.4 c -4.5,118 71.3,187.2 167.9,190.9 96.6,3.7 177.5,-59.5 182,-177.4 0.1,-3 0.2,-6.1 0.2,-9.1 l -16.6,-13.6 z"
          id="path846"
        />
        <path
          fill="#d87464"
          d="m 575.9,625.2 c -8.3,6.2 -17.5,10.9 -27.5,13.8 -25.4,7.2 -85.4,8.6 -127,-5.8 -23.4,47.2 -38.3,101.1 -40.5,148.6 10.1,-0.1 22.1,0.7 29.9,-0.2 35.5,-3.9 76.9,-12 110.8,-23.5 27.1,-9.2 56.8,-26.3 78.5,-45 7.2,-6.2 14,-13.5 20.4,-21.4 l -34.1,-45.5 z"
          id="path848"
        />
        <path
          fill="#b55445"
          d="m 722.9,785.2 c -0.8,16.5 -7.3,32.7 -14.3,47.4 -9.1,19 -20.8,36.8 -34.1,53 -13.1,16 -28.3,30.8 -45.9,41.9 -16.1,10.2 -32.9,15.1 -51.9,13.7 C 528.6,937.7 474.2,923 443.6,882.8 412,841.3 401.8,783 408.6,732.2 c 4.5,-33.1 19.2,-65.3 35.5,-94 18.7,-32.9 42.9,-64.9 74.5,-86.3 0,-0.2 0.1,-0.3 0.1,-0.5 0.4,-1.3 0.9,-2.7 1.5,-3.9 -0.7,-0.9 -1.9,-1.4 -3.1,-0.6 -38.7,25.8 -66.9,66.5 -87.4,107.6 -9.4,18.8 -17.3,38.4 -22.5,58.8 -5.6,22 -6.5,45 -4.7,67.6 3.9,48.6 22.5,100.5 63.1,130 19.6,14.3 43,23 66.4,28.6 11.8,2.8 23.8,4.7 35.9,5.9 9.7,1 19.3,1.8 28.9,0.2 17.3,-2.8 33.1,-12.1 46.8,-22.7 15.7,-12.1 29.2,-26.8 41.2,-42.5 12,-15.7 22.3,-32.7 30.5,-50.7 6.4,-14 11.9,-29.2 12.6,-44.7 0.2,-3 -4.8,-3 -5,0.2 z"
          id="path852"
        />
        <path
          fill="#b55445"
          d="m 528.6,571.4 c -17.1,13.7 -31.8,30.7 -45.3,47.9 -14.2,18.2 -27.4,37.6 -36.9,58.7 -21.1,46.7 -17.4,106.7 10,150 23.6,37.4 67,63.8 111.9,61.4 34.7,-1.9 68.7,-17.2 95.2,-39.3 22.9,-19.1 39.8,-44.4 50.3,-72.3 1.1,-3 -3.7,-4.3 -4.8,-1.3 -15.7,41.7 -46.5,75.3 -87.1,94 -15.2,7 -31.8,11.8 -48.5,13.5 -20.1,2.1 -40.1,-1.9 -58.4,-10.5 -23.1,-10.8 -42.5,-28.9 -55.9,-50.6 -15,-24.3 -21.3,-53.2 -20.9,-81.6 0.3,-25.2 6.3,-49.9 18.1,-72.2 11.4,-21.5 26,-41.4 41.6,-60 10.4,-12.3 21.6,-24.2 34.1,-34.2 2.7,-1.9 -0.9,-5.5 -3.4,-3.5 z"
          id="path856"
        />
        <path
          fill="#b55445"
          d="m 547.2,580.9 c -23.6,36.2 -49,73.1 -64.6,113.6 -16.5,42.9 -9.2,99.5 31.2,126.4 12.5,8.3 27.5,12.7 42.4,13.4 13,0.6 25.8,-2.7 37.9,-7.2 12.8,-4.7 25.2,-11 36.5,-18.7 9.4,-6.5 18.9,-14.5 23.9,-25 1.4,-2.9 -2.9,-5.4 -4.3,-2.5 -4.5,9.4 -12.7,16.4 -21,22.4 -9.7,6.9 -20.4,12.5 -31.4,17.1 -23.1,9.6 -47.1,12.5 -70.6,2.2 -48.9,-21.4 -56.6,-84.1 -39,-128.9 8.1,-20.6 19.5,-40.1 30.8,-59 10.4,-17.3 21.4,-34.3 32.4,-51.2 1.9,-2.8 -2.4,-5.3 -4.2,-2.6 z"
          id="path860"
        />
        <path
          fill="#b55445"
          d="m 566.1,613 c -18.7,13.1 -32.6,32.1 -42.6,52.4 -10,20.2 -16.4,43.5 -13.9,66.1 2.5,23.1 15.2,47.9 37.5,57.3 22.5,9.5 48.9,3.5 64.3,-15.7 9.1,-11.4 13.4,-26.4 11.6,-40.9 -0.4,-3.2 -5.4,-3.2 -5,0 3.2,26.6 -14.8,51.2 -41.3,55.6 -13.6,2.2 -28.1,-1.8 -38.8,-10.3 -10.7,-8.6 -17.2,-21.4 -20.9,-34.3 -6.7,-23.2 -1.1,-48.3 8.3,-69.9 9.4,-21.6 23.9,-42.3 43.3,-56 2.7,-1.8 0.2,-6.1 -2.5,-4.3 z"
          id="path864"
        />
        <path
          fill="#b55445"
          d="m 586.4,655.4 c -21.6,4.7 -36.1,27.4 -31.6,49 4.4,21.6 29,35.2 49.8,30.3 3.1,-0.7 1.8,-5.6 -1.3,-4.8 -18.4,4.3 -38.1,-7.5 -43.4,-25.5 -5.6,-19.1 9.1,-40 27.8,-44.1 3.2,-0.8 1.9,-5.6 -1.3,-4.9 z"
          id="path868"
        />
        <ellipse
          transform="rotate(-0.38640375)"
          fill="#f2d525"
          cx="884.31476"
          cy="908.20471"
          rx="34.000774"
          ry="20.000454"
          id="ellipse872"
          style="stroke-width: 1.00002"
        />
        <ellipse
          transform="rotate(-1.4668898)"
          fill="#f2556c"
          cx="593.52753"
          cy="901.71368"
          rx="34.000942"
          ry="20.000555"
          id="ellipse874"
          style="stroke-width: 1.00003"
        />
        <ellipse
          transform="rotate(37.266402)"
          fill="#569fef"
          cx="1066.4462"
          cy="347.31604"
          rx="33.998775"
          ry="19.999279"
          id="ellipse876"
          style="stroke-width: 0.999964"
        />
        <ellipse
          transform="rotate(-2.8114741)"
          fill="#569fef"
          cx="649.75836"
          cy="987.26331"
          rx="34.000126"
          ry="20.000072"
          id="ellipse878"
          style="stroke-width: 1"
        />
        <ellipse
          transform="rotate(-8.1689942)"
          fill="#ef2626"
          cx="496.38705"
          cy="1035.2612"
          rx="34.001606"
          ry="20.000944"
          id="ellipse880"
          style="stroke-width: 1.00005"
        />
        <ellipse
          transform="rotate(-0.38640375)"
          fill="#f2d525"
          cx="672.20685"
          cy="922.77496"
          rx="34.000774"
          ry="20.000454"
          id="ellipse882"
          style="stroke-width: 1.00002"
        />
        <ellipse
          transform="rotate(-0.38640375)"
          fill="#ef2626"
          cx="716.07196"
          cy="943.07172"
          rx="34.000774"
          ry="20.000454"
          id="ellipse884"
          style="stroke-width: 1.00002"
        />
        <ellipse
          transform="rotate(13.644374)"
          fill="#569fef"
          cx="886.09552"
          cy="693.36438"
          rx="34.000748"
          ry="20.000441"
          id="ellipse886"
          style="stroke-width: 1.00002"
        />
        <ellipse
          transform="rotate(12.492141)"
          fill="#ef2626"
          cx="881.34467"
          cy="675.54358"
          rx="33.999104"
          ry="19.999474"
          id="ellipse888"
          style="stroke-width: 0.999974"
        />
      </g>
      <g id="g2423">
        <path
          fill="#f0e3d3"
          d="m 449.7,944 c -17.1,-70.2 -32.6,-153.4 -123,-162.1 -100.1,-9.6 -131.4,92.4 -150,162.1 24.9,39.1 94.5,46 135,48 49.7,2.5 106.3,-7.7 138,-48 z"
          id="path892"
        />
        <path
          fill="#f7ece2"
          d="m 251.8,944 c 29.6,-2.8 54.8,-10.7 80.4,-26.9 23,-14.6 61.2,-43.2 63.8,-73.1 0.8,-8.4 -3,-18.2 -5,-26.2 -1.1,-4.1 -2.3,-8.5 -3.9,-12.6 -15.3,-12.4 -34.9,-20.8 -60.5,-23.2 -97.4,-9.3 -129.6,86.9 -148.5,156.4 21.1,10.3 51.6,7.7 73.7,5.6 z"
          id="path894"
        />
        <path
          fill="#fff6ee"
          d="m 327,799 c -34.1,0 -65.1,8.9 -85.3,38.8 -8.4,12.4 -17.3,24.2 -24.5,37.2 -6.7,12.3 -20.6,30.2 -18.1,44.8 14.8,8.8 35.3,0.6 50.6,-6.1 19.2,-8.4 31.2,-25.6 49.4,-34.5 25.9,-12.7 74.9,-3.6 82.8,-42.2 2.4,-11.7 1.7,-22.5 -11.2,-15.2 -9.8,5.5 -16.7,12.9 -27.8,16.3 -10.5,3.2 -22.8,4 -27.8,-8 -4.9,-12 7.2,-21.4 11.9,-31.1 z"
          id="path896"
        />
      </g>
      <g id="g2418">
        <path
          fill="#ff6e8a"
          d="M 207.7,985.8 C 196.9,941.5 187.2,889 130.1,883.6 67,877.6 47.3,941.8 35.5,985.8 c 15.7,24.7 59.6,29 85.1,30.3 31.5,1.6 67.2,-4.8 87.1,-30.3 z"
          id="path900"
        />
        <path
          fill="#ff92ac"
          d="m 82.9,985.8 c 18.7,-1.8 34.6,-6.7 50.7,-17 14.5,-9.2 38.6,-27.2 40.3,-46.1 0.5,-5.3 -1.9,-11.5 -3.2,-16.5 -0.7,-2.6 -1.4,-5.3 -2.4,-7.9 -9.7,-7.8 -22,-13.1 -38.1,-14.7 -61.4,-5.9 -81.7,54.8 -93.6,98.6 13.2,6.6 32.4,4.9 46.3,3.6 z"
          id="path902"
        />
        <path
          fill="#ffabc3"
          d="m 130.4,894.4 c -21.5,0 -41.1,5.6 -53.8,24.5 -5.3,7.8 -10.9,15.3 -15.4,23.5 -4.2,7.8 -13,19 -11.4,28.3 9.3,5.5 22.3,0.4 31.9,-3.8 12.1,-5.3 19.7,-16.2 31.2,-21.8 16.3,-8 47.2,-2.3 52.2,-26.6 1.5,-7.4 1.1,-14.2 -7.1,-9.6 -6.2,3.5 -10.5,8.1 -17.5,10.3 -6.6,2 -14.4,2.5 -17.5,-5.1 -3.2,-7.7 4.4,-13.6 7.4,-19.7 z"
          id="path904"
        />
      </g>
      <path
        fill="#934128"
        d="m 1036.8,855.9 c -10.8,-44.3 -20.5,-96.8 -77.6,-102.2 -63.1,-6 -82.8,58.2 -94.6,102.2 15.7,24.7 59.6,29 85.1,30.3 31.5,1.6 67.2,-4.8 87.1,-30.3 z"
        id="path908"
      />
      <path
        fill="#9e4632"
        d="m 912,855.9 c 18.7,-1.8 34.6,-6.7 50.7,-17 14.5,-9.2 38.6,-27.2 40.3,-46.1 0.5,-5.3 -1.9,-11.5 -3.2,-16.5 -0.7,-2.6 -1.4,-5.3 -2.4,-7.9 -9.7,-7.8 -22,-13.1 -38.1,-14.7 -61.4,-5.9 -81.7,54.8 -93.6,98.6 13.2,6.6 32.4,4.9 46.3,3.6 z"
        id="path910"
      />
      <path
        fill="#b25040"
        d="m 959.5,764.5 c -21.5,0 -41.1,5.6 -53.8,24.5 -5.3,7.8 -10.9,15.3 -15.4,23.5 -4.2,7.8 -13,19 -11.4,28.3 9.3,5.5 22.3,0.4 31.9,-3.8 12.1,-5.3 19.7,-16.2 31.2,-21.8 16.3,-8 47.2,-2.3 52.2,-26.6 1.5,-7.4 1.1,-14.2 -7.1,-9.6 -6.2,3.5 -10.5,8.1 -17.5,10.3 -6.6,2 -14.4,2.5 -17.5,-5.1 -3.2,-7.7 4.4,-13.6 7.4,-19.7 z"
        id="path912"
      />
      <ellipse
        transform="rotate(-100.2536)"
        fill="#ffd9a1"
        cx="-1109.9592"
        cy="1149.8827"
        rx="12.499625"
        ry="4.6998587"
        id="ellipse916"
        style="stroke-width: 0.99997"
      />
      <ellipse
        transform="rotate(-166.76145)"
        fill="#ffd9a1"
        cx="-1489.3215"
        cy="-572.11566"
        rx="12.499679"
        ry="4.6998787"
        id="ellipse918"
        style="stroke-width: 0.999974"
      />
      <ellipse
        transform="rotate(116.4805)"
        fill="#ffd9a1"
        cx="226.67261"
        cy="-1593.5834"
        rx="12.500193"
        ry="4.7000723"
        id="ellipse920"
        style="stroke-width: 1.00002"
      />
      <ellipse
        transform="rotate(39.721946)"
        fill="#ffd9a1"
        cx="1614.1387"
        cy="-157.07919"
        rx="12.500734"
        ry="4.7002759"
        id="ellipse922"
        style="stroke-width: 1.00006"
      />
      <ellipse
        transform="rotate(-37.037211)"
        fill="#ffd9a1"
        cx="533.49054"
        cy="1522.3052"
        rx="12.499303"
        ry="4.699738"
        id="ellipse924"
        style="stroke-width: 0.999944"
      />
      <circle
        fill="#ff6464"
        cx="1331.3"
        cy="900"
        r="7.3000002"
        id="circle926"
      />
      <path
        fill="#ffd9a1"
        d="m 1153.6,900.3 c -2.8,0.3 -4,4.5 -2.6,9.4 1.3,4.9 4.7,8.5 7.5,8.2 2.8,-0.3 4,-4.5 2.6,-9.4 -1.3,-4.8 -4.7,-8.5 -7.5,-8.2 z"
        id="path930"
      />
      <path
        fill="#ffd9a1"
        d="m 1131.3,914.6 c -0.6,1.8 4.8,4.2 12.1,5.3 7.3,1.1 13.8,0.6 14.5,-1.2 0.6,-1.8 -4.8,-4.2 -12.1,-5.3 -7.4,-1.2 -13.8,-0.7 -14.5,1.2 z"
        id="path932"
      />
      <path
        fill="#ffd9a1"
        d="m 1145.7,935.7 c 2.5,0.8 7.3,-2.1 10.7,-6.5 3.4,-4.4 4,-8.7 1.5,-9.5 -2.5,-0.8 -7.3,2.1 -10.7,6.5 -3.4,4.4 -4,8.7 -1.5,9.5 z"
        id="path934"
      />
      <path
        fill="#ffd9a1"
        d="m 1180.4,931.4 c 1.8,-1.4 -1.4,-5.1 -7.2,-8.3 -5.8,-3.2 -12,-4.6 -13.8,-3.1 -1.8,1.4 1.4,5.1 7.2,8.3 5.9,3.1 12,4.5 13.8,3.1 z"
        id="path936"
      />
      <path
        fill="#ffd9a1"
        d="m 1182,908.3 c -1.7,-1.5 -8,-0.3 -14,2.7 -6,3 -9.5,6.6 -7.8,8.1 1.7,1.5 8,0.3 14,-2.7 6,-3.1 9.5,-6.7 7.8,-8.1 z"
        id="path938"
      />
      <ellipse
        fill="#ff6464"
        cx="1158.3"
        cy="918.09998"
        rx="8"
        ry="5.1999998"
        id="ellipse940"
      />
      <path
        fill="#ffd9a1"
        d="m 1264.3,781.2 c -2.8,0.3 -4,4.5 -2.6,9.4 1.3,4.9 4.7,8.5 7.5,8.2 2.8,-0.3 4,-4.5 2.6,-9.4 -1.4,-4.8 -4.7,-8.5 -7.5,-8.2 z"
        id="path944"
      />
      <path
        fill="#ffd9a1"
        d="m 1242,795.5 c -0.6,1.8 4.8,4.2 12.1,5.3 7.3,1.1 13.8,0.6 14.5,-1.2 0.6,-1.8 -4.8,-4.2 -12.1,-5.3 -7.4,-1.2 -13.9,-0.6 -14.5,1.2 z"
        id="path946"
      />
      <path
        fill="#ffd9a1"
        d="m 1256.4,816.6 c 2.5,0.8 7.3,-2.1 10.7,-6.5 3.4,-4.4 4,-8.7 1.5,-9.5 -2.5,-0.8 -7.3,2.1 -10.7,6.5 -3.4,4.5 -4.1,8.7 -1.5,9.5 z"
        id="path948"
      />
      <path
        fill="#ffd9a1"
        d="m 1291.1,812.3 c 1.8,-1.4 -1.4,-5.1 -7.2,-8.3 -5.8,-3.2 -12,-4.6 -13.8,-3.1 -1.8,1.4 1.4,5.1 7.2,8.3 5.8,3.1 12,4.6 13.8,3.1 z"
        id="path950"
      />
      <path
        fill="#ffd9a1"
        d="m 1292.6,789.2 c -1.7,-1.5 -8,-0.3 -14,2.7 -6,3 -9.5,6.6 -7.8,8.1 1.7,1.5 8,0.3 14,-2.7 6,-3 9.5,-6.6 7.8,-8.1 z"
        id="path952"
      />
      <ellipse
        fill="#ffc215"
        cx="1269"
        cy="799"
        rx="8"
        ry="5.1999998"
        id="ellipse954"
      />
      <path
        fill="#ffeacf"
        d="m 1052.7,924.5 c -2.6,0.3 -3.7,4.2 -2.4,8.7 1.2,4.5 4.4,7.9 6.9,7.6 2.6,-0.3 3.7,-4.2 2.4,-8.7 -1.2,-4.5 -4.3,-7.9 -6.9,-7.6 z"
        id="path958"
      />
      <path
        fill="#ffeacf"
        d="m 1032,937.7 c -0.6,1.7 4.4,3.9 11.3,4.9 6.8,1.1 12.8,0.5 13.4,-1.1 0.6,-1.7 -4.4,-3.9 -11.3,-4.9 -6.8,-1 -12.8,-0.5 -13.4,1.1 z"
        id="path960"
      />
      <path
        fill="#ffeacf"
        d="m 1045.3,957.4 c 2.4,0.8 6.8,-1.9 9.9,-6.1 3.1,-4.2 3.8,-8.1 1.4,-8.8 -2.4,-0.8 -6.8,1.9 -9.9,6.1 -3.1,4.1 -3.7,8 -1.4,8.8 z"
        id="path962"
      />
      <path
        fill="#ffeacf"
        d="m 1077.6,953.4 c 1.7,-1.3 -1.3,-4.8 -6.7,-7.7 -5.4,-2.9 -11.1,-4.2 -12.8,-2.9 -1.7,1.3 1.3,4.8 6.7,7.7 5.4,2.9 11.1,4.2 12.8,2.9 z"
        id="path964"
      />
      <path
        fill="#ffeacf"
        d="m 1079,931.9 c -1.6,-1.4 -7.4,-0.2 -13,2.5 -5.6,2.8 -8.8,6.1 -7.3,7.5 1.6,1.4 7.4,0.2 13,-2.5 5.6,-2.7 8.9,-6.1 7.3,-7.5 z"
        id="path966"
      />
      <ellipse
        fill="#ffc215"
        cx="1057.1"
        cy="941"
        rx="7.4000001"
        ry="4.9000001"
        id="ellipse968"
      />
      <path
        fill="#ffeacf"
        d="m 1364.3,791 c -2.6,0.4 -3.7,6 -2.4,12.4 1.2,6.4 4.4,11.3 6.9,10.8 2.6,-0.4 3.7,-6 2.4,-12.4 -1.2,-6.4 -4.3,-11.2 -6.9,-10.8 z"
        id="path972"
      />
      <path
        fill="#ffeacf"
        d="m 1343.6,809.8 c -0.6,2.4 4.4,5.5 11.3,7 6.8,1.5 12.8,0.8 13.4,-1.6 0.6,-2.4 -4.4,-5.5 -11.3,-7 -6.8,-1.5 -12.8,-0.8 -13.4,1.6 z"
        id="path974"
      />
      <path
        fill="#ffeacf"
        d="m 1356.9,837.7 c 2.4,1.1 6.8,-2.8 9.9,-8.6 3.1,-5.8 3.8,-11.5 1.4,-12.5 -2.4,-1.1 -6.8,2.8 -9.9,8.6 -3.1,5.8 -3.7,11.4 -1.4,12.5 z"
        id="path976"
      />
      <path
        fill="#ffeacf"
        d="m 1389.2,832 c 1.7,-1.9 -1.3,-6.8 -6.7,-11 -5.4,-4.2 -11.1,-6 -12.8,-4.1 -1.7,1.9 1.3,6.8 6.7,11 5.4,4.2 11.1,6 12.8,4.1 z"
        id="path978"
      />
      <path
        fill="#ffeacf"
        d="m 1390.6,801.5 c -1.6,-2 -7.4,-0.4 -13,3.6 -5.6,3.9 -8.8,8.7 -7.3,10.7 1.5,2 7.4,0.4 13,-3.6 5.6,-4 8.9,-8.8 7.3,-10.7 z"
        id="path980"
      />
      <ellipse
        fill="#ffc215"
        cx="1368.6"
        cy="814.40002"
        rx="7.4000001"
        ry="6.9000001"
        id="ellipse982"
      />
      <path
        fill="#ffeacf"
        d="m 1263.9,946.9 c -2.4,-1 -6.3,3 -8.8,9.1 -2.5,6.1 -2.5,11.8 -0.1,12.9 2.4,1 6.3,-3 8.8,-9.1 2.5,-6.1 2.5,-11.8 0.1,-12.9 z"
        id="path986"
      />
      <path
        fill="#ffeacf"
        d="m 1236.3,951.4 c -1.8,1.7 0.7,7.1 5.6,12 4.9,5 10.3,7.7 12.1,6 1.8,-1.7 -0.7,-7.1 -5.6,-12 -4.9,-5 -10.3,-7.7 -12.1,-6 z"
        id="path988"
      />
      <path
        fill="#ffeacf"
        d="m 1232.3,982.1 c 1.4,2.2 7.2,1.4 13,-1.8 5.8,-3.2 9.4,-7.6 8,-9.8 -1.4,-2.2 -7.2,-1.4 -13,1.8 -5.8,3.2 -9.4,7.6 -8,9.8 z"
        id="path990"
      />
      <path
        fill="#ffeacf"
        d="m 1262.4,994.9 c 2.4,-0.7 2.6,-6.4 0.3,-12.8 -2.2,-6.4 -6,-11.1 -8.5,-10.5 -2.4,0.7 -2.6,6.4 -0.3,12.8 2.3,6.5 6.1,11.2 8.5,10.5 z"
        id="path992"
      />
      <path
        fill="#ffeacf"
        d="m 1280.3,970.1 c -0.3,-2.5 -6,-4.3 -12.8,-4.1 -6.8,0.2 -12.2,2.5 -11.9,5 0.3,2.5 6,4.3 12.8,4.1 6.8,-0.3 12.1,-2.5 11.9,-5 z"
        id="path994"
      />
      <ellipse
        transform="rotate(33.059177)"
        fill="#ffc215"
        cx="1580.2325"
        cy="127.61126"
        rx="7.3999329"
        ry="6.8999376"
        id="ellipse996"
        style="stroke-width: 0.999991"
      />
      <path
        fill="#ffeacf"
        d="m 1236.3,843 c -1.8,-0.8 -4.7,2.3 -6.6,6.8 -1.8,4.5 -1.9,8.8 -0.1,9.6 1.8,0.8 4.7,-2.3 6.6,-6.8 1.9,-4.5 1.9,-8.8 0.1,-9.6 z"
        id="path1000"
      />
      <path
        fill="#ffeacf"
        d="m 1215.7,846.3 c -1.3,1.2 0.5,5.3 4.2,9 3.7,3.7 7.7,5.7 9.1,4.5 1.3,-1.2 -0.5,-5.3 -4.2,-9 -3.7,-3.7 -7.8,-5.7 -9.1,-4.5 z"
        id="path1002"
      />
      <path
        fill="#ffeacf"
        d="m 1212.7,869.2 c 1,1.6 5.4,1 9.7,-1.3 4.3,-2.4 7,-5.6 6,-7.3 -1,-1.6 -5.4,-1 -9.7,1.3 -4.4,2.4 -7,5.7 -6,7.3 z"
        id="path1004"
      />
      <path
        fill="#ffeacf"
        d="m 1235.2,878.8 c 1.8,-0.5 1.9,-4.8 0.3,-9.6 -1.6,-4.8 -4.5,-8.3 -6.3,-7.8 -1.8,0.5 -1.9,4.8 -0.3,9.6 1.6,4.8 4.5,8.3 6.3,7.8 z"
        id="path1006"
      />
      <path
        fill="#ffeacf"
        d="m 1248.5,860.3 c -0.2,-1.9 -4.5,-3.2 -9.6,-3.1 -5.1,0.2 -9.1,1.8 -8.9,3.7 0.2,1.9 4.5,3.2 9.6,3.1 5.1,-0.2 9.1,-1.9 8.9,-3.7 z"
        id="path1008"
      />
      <ellipse
        transform="rotate(33.059177)"
        fill="#ffc215"
        cx="1499.2889"
        cy="49.537777"
        rx="5.4999499"
        ry="5.0999537"
        id="ellipse1010"
        style="stroke-width: 0.999991"
      />
      <path
        fill="#ffeacf"
        d="m 957.5,904.3 c -2.5,-1.1 -6.5,3.1 -9,9.3 -2.5,6.2 -2.6,12.1 -0.1,13.2 2.5,1.1 6.5,-3.1 9,-9.3 2.5,-6.2 2.6,-12.1 0.1,-13.2 z"
        id="path1014"
      />
      <path
        fill="#ffeacf"
        d="m 929.1,908.9 c -1.9,1.7 0.7,7.2 5.8,12.4 5,5.1 10.6,7.9 12.5,6.2 1.9,-1.7 -0.7,-7.2 -5.8,-12.4 -5,-5.2 -10.6,-8 -12.5,-6.2 z"
        id="path1016"
      />
      <path
        fill="#ffeacf"
        d="m 925,940.4 c 1.4,2.3 7.4,1.4 13.4,-1.8 6,-3.3 9.7,-7.8 8.2,-10 -1.4,-2.3 -7.4,-1.4 -13.4,1.8 -6,3.2 -9.6,7.7 -8.2,10 z"
        id="path1018"
      />
      <path
        fill="#ffeacf"
        d="m 955.9,953.5 c 2.5,-0.7 2.7,-6.6 0.4,-13.2 -2.3,-6.6 -6.2,-11.4 -8.7,-10.7 -2.5,0.7 -2.7,6.6 -0.4,13.2 2.3,6.6 6.2,11.4 8.7,10.7 z"
        id="path1020"
      />
      <path
        fill="#ffeacf"
        d="m 974.3,928.1 c -0.3,-2.6 -6.2,-4.5 -13.2,-4.2 -7,0.2 -12.5,2.5 -12.2,5.1 0.3,2.6 6.2,4.5 13.2,4.2 7,-0.3 12.5,-2.6 12.2,-5.1 z"
        id="path1022"
      />
      <ellipse
        transform="rotate(33.059177)"
        fill="#ffc215"
        cx="1300.2444"
        cy="259.61081"
        rx="7.5999308"
        ry="7.0999355"
        id="ellipse1024"
        style="stroke-width: 0.999991"
      />
      <path
        fill="#ffeacf"
        d="m 18.4,864 c -2.3,1.3 -1.4,7.1 2.1,12.8 3.5,5.7 8.2,9.3 10.6,7.9 2.3,-1.3 1.4,-7.1 -2.1,-12.8 -3.5,-5.7 -8.3,-9.2 -10.6,-7.9 z"
        id="path1028"
      />
      <path
        fill="#ffeacf"
        d="m 5.2,889.5 c 0.3,2.5 6.3,3.7 13.4,2.7 7.1,-1 12.6,-3.8 12.4,-6.4 -0.3,-2.5 -6.3,-3.7 -13.4,-2.7 -7.2,1.1 -12.7,3.9 -12.4,6.4 z"
        id="path1030"
      />
      <path
        fill="#ffeacf"
        d="m 28,911.6 c 2.7,0.2 5.6,-5.1 6.5,-11.8 0.9,-6.7 -0.5,-12.4 -3.1,-12.6 -2.7,-0.2 -5.6,5.1 -6.5,11.8 -0.9,6.8 0.5,12.4 3.1,12.6 z"
        id="path1032"
      />
      <path
        fill="#ffeacf"
        d="m 57.1,894.6 c 0.9,-2.4 -3.7,-6.1 -10.4,-8.1 -6.7,-2.1 -12.9,-1.8 -13.8,0.6 -0.9,2.4 3.7,6.1 10.4,8.1 6.6,2.1 12.8,1.8 13.8,-0.6 z"
        id="path1034"
      />
      <path
        fill="#ffeacf"
        d="m 47.5,864.7 c -2.2,-1.3 -7.3,2.3 -11.2,8.1 -4,5.8 -5.4,11.5 -3.2,12.9 2.2,1.3 7.3,-2.3 11.2,-8.1 3.9,-5.8 5.4,-11.6 3.2,-12.9 z"
        id="path1036"
      />
      <ellipse
        transform="rotate(-20.383034)"
        fill="#ffc215"
        cx="-279.1394"
        cy="840.39551"
        rx="7.6001201"
        ry="7.1001124"
        id="ellipse1038"
        style="stroke-width: 1.00002"
      />
      <path
        fill="#ffeacf"
        d="m 860.1,963.4 c -1.9,-1.9 -7.2,0.4 -11.9,5.1 -4.7,4.8 -7,10.2 -5.2,12.2 1.8,2 7.2,-0.4 11.9,-5.1 4.7,-4.8 7,-10.2 5.2,-12.2 z"
        id="path1042"
      />
      <path
        fill="#ffeacf"
        d="m 832.1,956.7 c -2.4,0.9 -2.1,7 0.6,13.6 2.7,6.7 6.8,11.3 9.2,10.5 2.4,-0.9 2.1,-7 -0.6,-13.6 -2.7,-6.6 -6.8,-11.3 -9.2,-10.5 z"
        id="path1044"
      />
      <path
        fill="#ffeacf"
        d="m 816.2,984.3 c 0.4,2.6 6.3,4.2 13,3.4 6.8,-0.7 11.9,-3.5 11.5,-6.1 -0.4,-2.6 -6.3,-4.2 -13,-3.4 -6.8,0.7 -12,3.4 -11.5,6.1 z"
        id="path1046"
      />
      <path
        fill="#ffeacf"
        d="m 839.7,1008.3 c 2.6,0.3 5,-5.1 5.4,-12 0.4,-7 -1.3,-12.9 -3.9,-13.3 -2.6,-0.3 -5,5.1 -5.4,12 -0.4,7 1.3,13 3.9,13.3 z"
        id="path1048"
      />
      <path
        fill="#ffeacf"
        d="m 866.4,991.8 c 0.7,-2.5 -4,-6.5 -10.6,-9 -6.6,-2.5 -12.5,-2.5 -13.2,0 -0.7,2.5 4,6.5 10.6,9 6.5,2.5 12.5,2.5 13.2,0 z"
        id="path1050"
      />
      <ellipse
        transform="rotate(55.672668)"
        fill="#ffc215"
        cx="1285.0632"
        cy="-142.92131"
        rx="7.5997295"
        ry="7.0997472"
        id="ellipse1052"
        style="stroke-width: 0.999964"
      />
      <path
        clip-path="url(#SVGID_2_)"
        fill="#36687f"
        d="m 872.5,361.7 c -10.8,-3.2 -8.7,3.5 -9.7,12.3 -0.4,3.4 -1.6,7.8 -2.2,12 -0.6,-0.1 -1.3,-0.1 -1.8,-0.1 -1.2,-3.9 -1.4,-7.6 -0.9,-12 0.1,-0.6 -0.7,-0.7 -0.9,-0.1 -1.1,3.9 -0.7,8.4 0.8,12.3 -0.9,0.3 -1.6,0.7 -2.1,1.4 -3.3,-3.7 -8.6,-6.2 -13.5,-4.9 -0.3,0.1 -0.3,0.6 0.1,0.6 5.2,0.3 9.5,1.4 13.1,4.8 -0.6,0.9 -0.9,2 -0.8,3.1 -4.5,-0.9 -9.4,-1.2 -12.9,-2 -8.6,-1.9 -14.2,-6.1 -14.8,5.2 -0.2,3.7 3.3,16.8 5.8,19.2 6.3,6.1 12.1,1.1 19.6,2.4 -0.6,7.5 -0.9,17 5.6,22 4.5,3.5 16.2,4.2 19.3,-1.8 1.1,-2.2 -0.8,-10.2 -3.7,-18.6 0.8,0.7 1.6,1.2 2.1,1.2 4,0.1 1.7,-4.9 1,-6.9 -0.1,-0.3 -0.2,-0.5 -0.3,-0.7 8,6.5 16.6,12.2 19.3,11.8 6.7,-1 9.8,-12.2 8,-17.6 -2.6,-7.8 -11.7,-10.6 -18.9,-12.5 1.2,-7.5 7.8,-11.4 4.1,-19.4 -1.4,-3.1 -12.7,-10.6 -16.3,-11.7 z"
        id="borb-4"
      />
      <path
        clip-path="url(#SVGID_2_)"
        fill="#427e93"
        d="m 232,327.1 c -1.7,-8.2 -5.4,-4.5 -11.5,-2.1 -2.4,0.9 -5.7,1.7 -8.7,2.7 -0.2,-0.5 -0.4,-0.9 -0.6,-1.2 2.1,-2.1 4.6,-3.6 7.6,-4.8 0.4,-0.2 0.2,-0.7 -0.2,-0.6 -3,0.6 -5.8,2.5 -7.8,4.9 -0.5,-0.5 -1,-0.8 -1.7,-0.9 1.3,-3.5 1.1,-7.9 -1.5,-10.6 -0.2,-0.2 -0.5,0 -0.4,0.3 1.6,3.5 2.4,6.7 1.4,10.3 -0.8,-0.1 -1.6,0.1 -2.4,0.5 -1,-3.2 -2.5,-6.6 -3.2,-9.2 -1.7,-6.3 -1,-11.5 -8.6,-8 -2.5,1.2 -10,8.1 -10.7,10.6 -1.8,6.3 3.5,8.4 5.3,13.8 -5.2,2.2 -11.6,5.3 -12.5,11.4 -0.7,4.2 2.9,12.1 7.9,12.1 1.8,0 6.5,-4.1 11,-8.9 -0.2,0.8 -0.2,1.5 -0.1,1.8 1.4,2.7 3.8,-0.6 4.9,-1.7 0.1,-0.1 0.3,-0.3 0.4,-0.4 -1.5,7.5 -2.3,15.2 -1,16.9 3,4.1 11.5,2.2 14.4,-0.9 4.2,-4.4 2.9,-11.4 1.6,-16.9 5.4,-1.8 10.3,1.2 14.2,-4.1 1.7,-2.2 2.7,-12.3 2.2,-15 z"
        id="borb-2"
      />
      <path
        clip-path="url(#SVGID_2_)"
        fill="#aec4cf"
        d="m 708.6,277.4 c -3.8,-7.5 -6.4,-2.9 -11.6,1 -2.1,1.5 -5,3.2 -7.7,5 -0.3,-0.4 -0.6,-0.7 -0.9,-1 1.5,-2.6 3.4,-4.6 6,-6.7 0.3,-0.3 0,-0.7 -0.4,-0.5 -2.7,1.4 -4.9,4 -6.3,6.8 -0.6,-0.3 -1.2,-0.5 -1.9,-0.5 0.3,-3.7 -1.1,-7.9 -4.2,-9.9 -0.2,-0.1 -0.5,0.2 -0.3,0.4 2.5,3 4.1,5.9 4.1,9.6 -0.8,0.1 -1.5,0.5 -2.1,1.2 -1.8,-2.9 -4.2,-5.7 -5.6,-8 -3.4,-5.7 -4,-10.9 -10.4,-5.4 -2.1,1.8 -7.5,10.4 -7.5,13.1 -0.1,6.5 5.6,7.2 8.8,11.9 -4.4,3.5 -9.7,8.2 -9.1,14.3 0.5,4.2 6,10.9 10.9,9.5 1.8,-0.5 5.1,-5.6 8.3,-11.5 0,0.8 0.2,1.5 0.4,1.8 2,2.2 3.5,-1.6 4.3,-3 0.1,-0.2 0.2,-0.4 0.3,-0.5 0.6,7.7 1.9,15.3 3.5,16.6 4,3.1 11.6,-0.9 13.7,-4.7 2.9,-5.4 -0.2,-11.8 -3,-16.7 4.7,-3.2 10.2,-1.6 12.6,-7.7 1,-2.6 -0.6,-12.6 -1.9,-15.1 z"
        id="borb-5"
      />
      <path
        clip-path="url(#SVGID_2_)"
        fill="#36687f"
        d="m 572.9,420.4 c -9.8,-3.7 -7,2.7 -6.6,10.8 0.2,3.2 -0.2,7.2 -0.2,11.1 -0.6,-0.1 -1.1,-0.2 -1.6,-0.2 -1.6,-3.7 -2.3,-7.2 -2.5,-11.2 0,-0.5 -0.7,-0.7 -0.8,-0.2 -0.4,3.6 0.6,7.8 2.5,11.5 -0.7,0.2 -1.3,0.6 -1.7,1.1 -3.4,-3.7 -8.4,-6.4 -12.4,-5.6 -0.3,0.1 -0.1,0.6 0.1,0.6 4.5,0.7 8.4,2 12,5.4 -0.4,0.8 -0.5,1.8 -0.3,2.9 -4,-1.1 -8.3,-1.8 -11.5,-2.8 -7.7,-2.4 -13.2,-6.7 -12.1,3.8 0.4,3.5 5.3,15.9 7.8,18.4 6.3,6.1 10.7,1.9 17.4,3.7 0.5,6.9 1.6,15.8 8,20.9 4.4,3.5 14.6,5.1 16.5,-0.3 0.7,-2 -2.1,-9.5 -5.8,-17.6 0.8,0.7 1.5,1.2 2,1.3 3.5,0.4 0.8,-4.5 -0.1,-6.3 -0.1,-0.2 -0.2,-0.5 -0.3,-0.7 7.9,6.6 16.1,12.6 18.5,12.4 5.7,-0.4 6.7,-10.7 4.4,-15.9 -3.3,-7.4 -11.6,-10.7 -18.2,-13 0,-6.9 5.1,-10.1 0.8,-17.8 -1.8,-3.2 -12.7,-11.1 -15.9,-12.3 z"
        id="borb-3"
      />
      <circle
        fill="#8b431f"
        cx="1031.7625"
        cy="526.6889"
        r="11.7"
        id="olho-close"
        style="fill: #fdb813; fill-opacity: 1"
      />
    </g>
  </g>
</svg>
